<svg width="200" height="200" viewBox="0 0 200 200" fill="none" xmlns="http://www.w3.org/2000/svg">
<path d="M135.677 79.7333L135.36 79.513L135.775 80.3944C135.905 80.6556 136.198 80.9657 136.654 81.3248L137.337 81.937L137.312 81.2514C137.28 80.9249 136.735 80.4189 135.677 79.7333ZM150.076 72.3144C150.271 71.5635 150.653 70.6413 151.223 69.5476L152.053 68.054C152.248 67.7602 152.516 67.6623 152.858 67.7602C153.183 67.8745 153.33 68.1111 153.297 68.4703L153.053 71.8492C152.907 74.2324 152.874 75.8484 152.956 76.6972C153.004 77.1053 153.11 77.4154 153.273 77.6276L153.981 78.1663L155.006 78.7784C155.477 79.1049 155.827 79.4558 156.055 79.8313C156.641 80.7617 157.031 82.1981 157.226 84.1406C157.422 85.9362 157.381 87.2747 157.104 88.1561C157.007 88.4663 156.99 88.7356 157.055 88.9641C157.104 89.1763 157.251 89.4212 157.495 89.6987L158.056 90.017L158.544 90.3843L158.739 91.2412C158.723 91.4534 158.609 91.682 158.398 91.9268L157.861 92.6614C157.666 93.0205 157.568 93.3469 157.568 93.6408L157.714 94.6446C157.779 95.1833 157.755 95.6077 157.641 95.9179C157.495 96.3749 157.194 96.6116 156.738 96.6279C156.218 96.5789 155.86 96.5789 155.664 96.6279C155.274 96.7422 154.973 96.8891 154.761 97.0687C154.452 97.3951 154.249 97.8277 154.151 98.3663C154.037 98.8887 154.054 99.3131 154.2 99.6396L154.664 99.7865L155.225 99.9334L155.982 100.105C156.275 100.252 156.445 100.497 156.494 100.839L156.128 101.354L155.445 102.186L154.542 103.141C154.151 103.582 154.062 103.892 154.273 104.071C154.42 104.186 154.696 103.949 155.103 103.361C155.689 102.512 156.153 101.925 156.494 101.598C157.503 100.619 158.569 99.9415 159.691 99.5661C161.042 99.0438 161.717 98.8397 161.717 98.954L161.351 99.4437L160.96 99.9089C162.034 99.3866 163.531 98.7663 165.451 98.048L166.598 97.8522C167.183 97.7705 167.484 97.7705 167.501 97.8522C167.533 97.9991 167.313 98.2439 166.842 98.5867L165.914 99.2233L159.642 104.145C158.992 104.667 158.349 105.426 157.714 106.422C157.178 107.222 156.82 107.899 156.641 108.454C156.527 108.83 156.323 109.115 156.031 109.311L155.152 109.825L154.688 110.168L154.713 110.315C154.827 110.805 154.81 111.449 154.664 112.249L154.151 112.788L153.59 113.253C157.413 119.538 159.895 125.773 161.033 131.96C162.758 141.231 161.204 149.442 156.372 156.591C150.239 165.651 142.844 171.331 134.189 173.633C130.496 174.612 126.265 175.086 121.498 175.053L107.637 174.049C99.7624 173.151 92.4411 170.172 85.673 165.112C83.5254 163.496 81.5487 161.75 79.7427 159.872L77.4731 157.326L77.888 155.294L117.521 144.594L118.204 147.483L119.326 146.455C119.408 146.177 119.408 145.908 119.326 145.647C119.245 145.418 119.139 145.247 119.009 145.133L124.573 147.899C128.283 149.728 132.106 150.038 136.043 148.83C140.794 147.377 144.845 143.835 148.197 138.203C150.409 134.482 151.32 130.14 150.93 125.177C150.637 121.407 149.669 117.644 148.026 113.89C146.822 113.939 146.139 114.053 145.976 114.233C145.504 114.771 145.057 115.098 144.634 115.212C143.739 115.489 142.608 115.163 141.242 114.233L141.144 114.159C140.705 113.865 140.518 113.245 140.583 112.298L140.509 111.564L140.29 111.025C140.16 110.878 139.956 110.748 139.68 110.633L138.679 110.217L137.678 110.315L136.483 110.829C135.555 111.384 134.986 111.686 134.774 111.735C134.059 111.915 133.481 111.417 133.042 110.242L132.505 108.16L132.383 107.793L131.821 106.593C131.643 106.136 131.691 105.687 131.968 105.247C132.131 104.969 132.301 104.292 132.48 103.214C132.659 102.137 132.741 101.305 132.724 100.717L132.7 99.713C132.7 99.2396 132.798 98.7908 132.993 98.3663C133.107 98.1215 133.326 97.7706 133.652 97.3135L134.457 96.0158L134.701 95.0609L134.579 94.2039C134.416 93.5673 134.351 93.0123 134.384 92.5389L134.457 91.3392C134.49 90.8658 134.579 90.4496 134.726 90.0904C134.791 89.9272 135.01 89.5273 135.385 88.8907C135.645 88.4336 135.767 88.1072 135.751 87.9113C135.718 87.5848 135.433 86.6626 134.896 85.1445C134.36 83.708 134.042 82.6797 133.945 82.0594C133.847 81.4228 133.798 80.729 133.798 79.9782L133.823 78.9743C133.839 78.7947 133.928 78.6397 134.091 78.5091L131.919 76.5993C131.789 76.485 131.716 76.3462 131.699 76.183C131.667 76.0035 131.708 75.8402 131.821 75.6933C131.903 75.5627 132.033 75.4729 132.212 75.424L132.676 75.4974C134.189 76.2646 135.157 76.6972 135.58 76.7951L136.873 76.7706L137.459 76.6727C138.321 76.5421 139.257 76.9828 140.265 77.9949L140.461 78.2153L140.143 75.5709C140.095 74.869 140.347 73.7672 140.9 72.2654C141.323 71.1881 141.843 70.0291 142.462 68.7886C142.722 68.2662 142.934 67.2379 143.096 65.7035L143.291 62.5204C143.291 62.1613 143.462 61.9491 143.804 61.8838C144.146 61.8022 144.398 61.9165 144.561 62.2266L144.878 63.0591C145.089 63.712 145.195 64.3323 145.195 64.9199C145.195 65.3443 145.309 66.1115 145.537 67.2215L145.317 65.2382C145.301 65.0587 145.341 64.8955 145.439 64.7485C145.553 64.5853 145.699 64.4874 145.878 64.4547C146.057 64.4384 146.228 64.4792 146.391 64.5772C146.537 64.6751 146.627 64.8138 146.659 64.9934L146.879 65.9728C147.074 66.691 147.286 67.295 147.513 67.7847C147.725 68.2581 147.823 68.813 147.806 69.4497L147.611 71.0901L147.44 72.192C147.408 72.7143 147.855 73.5876 148.782 74.8119L149.368 75.5954L149.637 76.0606L149.71 75.0322C149.791 73.808 149.913 72.902 150.076 72.3144Z" fill="#0D131A"/>
<path d="M148.904 85.928L149.343 85.6832C149.457 85.7322 149.457 85.9852 149.343 86.4422C149.181 87.1115 149.107 87.9113 149.124 88.8418C149.14 89.7069 149.23 90.4414 149.392 91.0454C149.539 91.5514 149.775 92.0166 150.1 92.441C150.377 92.8328 150.523 93.2082 150.539 93.5673C150.555 94.4162 150.49 95.216 150.344 95.9669C150.344 96.1301 150.401 96.2444 150.515 96.3097C150.612 96.3749 150.767 96.3178 150.978 96.1383C151.19 95.8771 151.377 95.518 151.54 95.0609C151.621 94.8161 151.629 94.5223 151.564 94.1795C151.532 93.7551 151.597 93.3796 151.759 93.0532L152.15 92.2452C152.296 91.9513 152.443 91.8289 152.589 91.8779L152.662 92.2941L152.54 93.5429L152.833 93.9836L152.955 94.7181C152.923 94.9793 152.695 95.5996 152.272 96.579L151.711 98.2195C151.532 98.7745 151.458 99.1907 151.491 99.4682C151.572 100.235 151.727 100.619 151.955 100.619L152.15 100.301L152.345 99.6396L153.126 98.146C153.289 97.8685 153.598 97.5013 154.053 97.0442C153.695 97.6971 153.517 98.3745 153.517 99.0764C153.517 99.3866 153.598 99.7457 153.761 100.154C153.874 100.415 154.2 100.603 154.737 100.717C155.257 100.799 155.534 100.954 155.566 101.182C155.599 101.443 155.42 101.737 155.03 102.064L154.102 102.872C153.858 103.182 153.728 103.5 153.712 103.827C153.679 104.202 153.809 104.488 154.102 104.683C154.428 104.912 154.899 104.594 155.518 103.729L156.909 101.843C157.429 101.403 158.552 100.766 160.277 99.9334L158.715 101.28C158.487 101.476 158.267 101.762 158.056 102.137L157.812 102.651L158.788 101.99C159.569 101.484 160.26 101.06 160.862 100.717C161.838 100.195 163.449 99.5172 165.694 98.6847L159.276 103.312C158.511 103.916 157.771 104.659 157.055 105.54C156.388 106.389 155.965 107.083 155.786 107.622C155.64 108.03 155.298 108.454 154.761 108.895L153.639 109.752C153.492 109.915 153.451 110.152 153.517 110.462L153.541 111.686C153.476 111.964 153.313 112.217 153.053 112.445L149.441 108.528L147.879 107.132L147.025 106.52L148.807 108.944L147.44 109.091L147.123 109.507L146.122 107.671L146.22 108.503C146.366 109.254 146.618 110.152 146.976 111.196L145.927 111.294L145.292 111.49L144.877 111.466C144.406 111.058 144.153 110.772 144.121 110.609C144.105 110.511 144.137 110.413 144.218 110.315L144.389 110.095C144.585 109.719 144.65 109.197 144.585 108.528C144.519 107.858 144.349 107.352 144.072 107.01C143.812 106.667 143.332 106.283 142.632 105.859C141.884 105.418 141.29 105.198 140.851 105.198C140.688 105.198 140.428 105.287 140.07 105.467L139.216 105.859C138.906 105.94 138.646 105.802 138.435 105.443C138.077 104.757 137.8 103.982 137.605 103.116C137.41 102.202 137.418 101.639 137.629 101.427C137.873 101.182 138.589 100.79 139.777 100.252L141.022 99.5417C141.379 99.2968 141.599 99.0438 141.68 98.7826C141.876 98.244 141.664 97.591 141.046 96.8238C140.232 95.8281 140.053 94.8732 140.509 93.9591C140.704 93.5347 141.176 93.1837 141.924 92.9063C142.38 92.7267 142.852 92.3757 143.34 91.8534L144.096 90.4578L144.731 88.5234C144.894 87.9358 145.048 87.642 145.195 87.642C145.292 87.642 145.357 87.8705 145.39 88.3276C145.422 88.9315 145.39 89.5273 145.292 90.115L145.097 91.2902C145.065 91.5188 145.081 91.6657 145.146 91.731C145.26 91.8452 145.398 91.886 145.561 91.8534C146.016 91.7391 146.39 91.4861 146.683 91.0944C147.025 90.6047 147.277 89.8538 147.44 88.8418C147.57 88.0582 147.855 87.3318 148.294 86.6626L148.904 85.928Z" fill="#EFE908"/>
<path d="M150.71 72.4858C150.905 71.7676 151.288 70.878 151.857 69.817L152.638 68.4213L152.394 71.8002C152.231 74.2161 152.199 75.8729 152.296 76.7707C152.378 77.5705 152.735 78.1826 153.37 78.607C154.232 79.1784 154.81 79.6925 155.103 80.1496C155.656 81.0311 156.079 82.3777 156.372 84.1896C156.665 85.9525 156.697 87.2094 156.469 87.9603C156.29 88.5479 156.396 89.1192 156.787 89.6742L157.69 90.8985C157.836 91.2086 157.86 91.4371 157.763 91.5841C157.568 91.8126 157.397 92.0738 157.25 92.3676C157.104 92.6777 157.031 93.0695 157.031 93.5428C157.031 94.1142 156.949 94.6202 156.787 95.0609C156.624 95.5669 156.258 95.9097 155.688 96.0893C154.956 96.3178 154.476 96.5463 154.249 96.7749L153.858 97.289C153.337 97.844 152.89 98.5541 152.516 99.4192L152.223 100.35L152.003 100.79C151.906 100.823 151.808 100.733 151.711 100.521L151.466 99.6396C151.418 99.2968 151.458 98.8887 151.588 98.4153L152.052 97.0197L152.565 95.7465L152.858 94.7671L152.833 94.1795L152.638 93.9101C152.508 93.7142 152.443 93.5184 152.443 93.3225L152.565 92.4165C152.613 92.1554 152.605 92.0166 152.54 92.0003C152.394 91.9677 152.19 92.2533 151.93 92.8573C151.686 93.3796 151.588 93.804 151.637 94.1305V94.9875C151.279 95.9995 150.913 96.4729 150.539 96.4076C150.263 96.3586 150.197 96.0485 150.344 95.4772L150.466 93.7632C150.466 93.3062 150.352 92.9144 150.124 92.5879C149.766 92.1146 149.539 91.7065 149.441 91.3637C149.083 90.1068 148.937 88.907 149.002 87.7644C149.018 87.389 149.116 86.9074 149.294 86.3198C149.522 85.5526 149.294 85.5771 148.611 86.3933C148.107 87.0625 147.765 87.7971 147.586 88.5969C147.293 89.9681 146.96 90.8821 146.586 91.3392C146.472 91.4698 146.293 91.6004 146.049 91.731C145.772 91.8779 145.544 91.9432 145.365 91.9268L145.073 91.731L144.999 91.4616L145.341 88.8907C145.39 88.1562 145.341 87.7889 145.195 87.7889C145.113 87.7889 145.024 87.944 144.926 88.2541L144.584 89.3559C144.194 90.5965 143.869 91.3719 143.608 91.682L142.681 92.539L141.754 93.1021C141.461 93.2164 141.241 93.3306 141.095 93.4449C140.899 93.6081 140.737 93.853 140.607 94.1795C140.363 94.7344 140.338 95.2813 140.533 95.8199L141.217 96.9463L141.778 97.9012C141.892 98.195 141.9 98.5051 141.802 98.8316C141.737 99.0111 141.51 99.256 141.119 99.5661L139.484 100.497C138.736 100.774 138.158 101.109 137.751 101.5C137.345 101.925 137.597 103.223 138.508 105.394C138.67 105.72 138.898 105.842 139.191 105.761L139.972 105.394C140.379 105.198 140.729 105.1 141.021 105.1C141.347 105.1 141.9 105.345 142.681 105.834C143.413 106.275 143.893 106.626 144.121 106.887C144.349 107.132 144.511 107.597 144.609 108.283C144.706 108.919 144.706 109.401 144.609 109.727L144.267 110.34C144.17 110.503 144.186 110.641 144.316 110.756L144.804 111.221C144.967 111.368 145.138 111.425 145.317 111.392L145.975 111.172L146.927 111.074L147.464 112.519L147.22 112.47C146.846 112.388 146.374 112.649 145.805 113.253L144.536 114.404C144.031 114.535 143.055 114.118 141.607 113.155C141.347 112.976 141.225 112.739 141.241 112.445C141.274 111.972 141.241 111.605 141.143 111.343C140.997 110.919 140.704 110.593 140.265 110.364C139.695 110.152 139.24 109.948 138.898 109.752L137.044 109.85L135.286 110.56C134.88 110.658 134.449 110.38 133.993 109.727C133.651 109.221 133.367 108.634 133.139 107.964L132.773 106.667C132.708 106.259 132.797 105.859 133.041 105.467C133.269 105.092 133.399 104.186 133.432 102.749L133.383 99.713C133.383 99.1744 133.57 98.6357 133.944 98.097L135.067 96.3096C135.36 95.7057 135.441 95.0772 135.311 94.4243C135.132 93.4939 135.051 92.8818 135.067 92.5879C135.099 92.1472 135.352 91.331 135.823 90.1394C136.263 89.0458 136.458 88.2786 136.409 87.8379C136.376 87.3971 136.092 86.4422 135.555 84.9731C135.002 83.4224 134.684 82.4185 134.603 81.9615C134.505 81.3575 134.465 80.6883 134.481 79.9537L134.505 79.0233L134.628 79.4885C134.758 79.8803 134.945 80.2883 135.189 80.7127C135.384 81.0719 135.718 81.4473 136.189 81.8391C136.71 82.2635 137.084 82.6471 137.312 82.9898C137.54 83.3326 137.694 83.7489 137.776 84.2386C138.003 82.8674 138.077 81.8472 137.995 81.178C137.946 80.7372 137.621 80.2802 137.019 79.8068L135.506 78.8029C135.181 78.5744 134.562 78.0521 133.651 77.2359L132.358 76.0851L133.554 76.6727C134.416 77.0971 135.034 77.3583 135.408 77.4563L136.507 77.5297L137.532 77.3338C138.199 77.2359 138.955 77.6113 139.801 78.4601C139.964 78.6234 140.086 78.958 140.167 79.464C140.265 80.0027 140.476 80.5005 140.802 80.9576C141.404 81.7738 141.745 82.4104 141.827 82.8674C141.225 78.9498 140.883 76.5013 140.802 75.5219C140.753 74.869 141.021 73.808 141.607 72.3389C141.998 71.3105 142.486 70.225 143.071 69.0824C143.397 68.4295 143.641 67.1481 143.804 65.2383L143.95 62.5449L144.243 63.255C144.438 63.8426 144.536 64.3976 144.536 64.92C144.536 65.3607 144.633 66.0952 144.829 67.1236L145.195 69.4252C145.276 70.323 145.349 70.6984 145.414 70.5515C145.642 70.2577 145.87 69.768 146.098 69.0824C146.325 68.4132 146.285 67.0991 145.975 65.1403L146.22 66.1442L146.878 68.0785C147.106 68.5846 147.171 69.2456 147.074 70.0618L146.781 72.143C146.732 72.698 146.968 73.3754 147.489 74.1753L148.806 75.9872C149.262 76.6564 149.522 77.4073 149.587 78.2398C149.896 77.7174 150.124 77.1135 150.271 76.4279L150.417 74.7139C150.45 73.8651 150.547 73.1224 150.71 72.4858Z" fill="#E50020"/>
<path d="M86.2834 163.913C84.1358 162.345 82.1591 160.68 80.3532 158.918L78.2788 156.714L97.2653 151.597C99.055 154.976 101.333 158.003 104.099 160.681C108.442 164.859 113.421 167.504 119.034 168.614C129.69 170.703 139.81 168.369 149.393 161.611C151.394 160.191 153.265 158.428 155.006 156.322C149.002 164.957 141.819 170.328 133.457 172.433C129.926 173.331 125.875 173.747 121.304 173.682L108.15 172.678C100.454 171.797 93.1654 168.875 86.2834 163.913Z" fill="#DDD583"/>
<path d="M99.2661 151.107L107.881 148.756C110.093 152.788 113.478 156.028 118.033 158.477C122.702 160.974 127.852 162.223 133.481 162.223C138.378 162.223 142.95 161.26 147.196 159.334C151.312 157.457 154.631 154.902 157.153 151.67C155.054 155.49 152.297 158.558 148.88 160.876C139.46 167.259 129.56 169.43 119.18 167.389C113.827 166.328 109.223 163.815 105.367 159.848C103.22 157.628 101.186 154.714 99.2661 151.107Z" fill="#D18200"/>
<path d="M147.367 108.895L147.025 106.961L148.026 107.842L148.904 109.091L151.857 113.082C154.412 116.738 156.527 121.015 158.202 125.912C159.813 130.613 160.618 134.686 160.618 138.13C160.618 142.929 159.463 147.442 157.153 151.67C154.631 154.902 151.312 157.457 147.196 159.334C142.95 161.26 138.378 162.223 133.481 162.223C127.852 162.223 122.702 160.974 118.033 158.477C113.478 156.028 110.094 152.788 107.881 148.756L117.911 146.039L118.448 146.553C119.359 147.173 121.181 148.152 123.914 149.491C127.868 151.433 132.017 151.752 136.361 150.446C141.599 148.879 146.008 145.1 149.588 139.109C151.898 135.241 152.777 130.654 152.223 125.349C151.817 121.529 150.718 117.554 148.929 113.425C148.034 111.368 147.269 109.801 146.635 108.723L146.391 107.573L147.367 108.895Z" fill="#F29600"/>
<path d="M103.854 158.159C102.292 156.281 100.763 153.931 99.2661 151.107L117.887 146.063L117.96 146.185C118.106 146.349 118.456 146.594 119.009 146.92C119.335 148.356 119.497 149.809 119.497 151.278C119.497 154.037 118.952 156.665 117.862 159.162C116.805 161.578 115.316 163.7 113.396 165.529C109.768 163.88 106.587 161.423 103.854 158.159Z" fill="#D18200"/>
<path d="M83.0372 161.391C82.061 159.726 81.3289 157.938 80.8408 156.028L97.2649 151.597C98.5827 154.127 100.242 156.502 102.243 158.722C105.221 162.084 108.605 164.655 112.396 166.434C110.671 167.855 108.784 168.948 106.734 169.715C104.586 170.515 102.365 170.923 100.071 170.94C93.9866 168.997 88.3085 165.814 83.0372 161.391Z" fill="#DDD583"/>
<path d="M60.3169 35.4156L53.2152 43.2998C52.9224 43.7079 52.7759 44.8587 52.7759 46.7522C52.7759 48.8742 52.9874 51.086 53.4104 53.3876C53.6708 54.8893 54.2565 56.8236 55.1676 59.1905C56.0949 61.639 56.8921 63.2713 57.5592 64.0875L61.171 68.1765L64.5144 71.9716C65.0188 72.7062 65.3767 73.9223 65.5882 75.6199C66.0437 78.6071 66.4179 80.5332 66.7108 81.3983C67.1175 82.5736 67.6219 83.7081 68.2238 84.8017C68.6631 85.5853 69.322 86.6381 70.2006 87.9603C71.3883 89.7069 72.763 91.38 74.3249 92.9797L75.3987 92.539L76.6921 92.4655C77.1314 92.6124 77.4405 93.0205 77.6195 93.6898L77.9368 95.3548L79.4742 96.3831C79.7833 96.5953 79.9786 96.9055 80.0599 97.3135C80.1087 97.689 80.0192 98.0318 79.7915 98.3419L76.2284 102.97L73.9833 108.675C73.8043 109.148 73.4626 109.425 72.9583 109.507C72.7305 109.556 72.397 109.474 71.9577 109.262L71.0791 108.675C69.3546 106.585 67.5812 104.692 65.759 102.994C63.0257 100.464 60.8456 99.0438 59.2187 98.7337C58.031 98.5051 56.8108 98.6031 55.558 99.0275C55.1838 99.1744 54.2077 99.6396 52.6295 100.423C51.6533 100.913 50.9456 101.215 50.5063 101.329C49.7742 101.525 49.1234 101.476 48.554 101.182C48.0822 100.937 47.8137 100.521 47.7487 99.9334L47.7975 98.8071L47.9195 98.2685C48.0659 97.3217 47.8381 96.2852 47.2362 95.1589C46.8457 94.4733 46.0892 93.7795 44.9666 93.0776C43.3071 92.0166 41.4442 91.4861 39.378 91.4861C34.611 91.4861 29.5837 93.4776 24.2961 97.4604C21.2863 99.7131 18.6832 102.17 16.4868 104.83C16.4054 105.516 16.4054 106.357 16.4868 107.352L16.6332 108.944C16.6332 109.76 16.438 110.478 16.0475 111.099C15.6407 111.735 15.1527 112.053 14.5832 112.053C14.0463 112.053 13.5664 111.849 13.1434 111.441C12.6065 110.935 12.2974 110.201 12.216 109.238L12.1916 109.091C11.85 105.206 11.6303 102.137 11.5327 99.8845C11.4676 98.3664 11.4676 97.4523 11.5327 97.1421C11.8255 95.1344 12.4763 91.9595 13.485 87.6175C14.4287 83.5367 15.2828 80.1578 16.0475 77.4808C16.7145 75.1302 17.7883 71.939 19.2689 67.9071C20.6518 64.1365 21.5547 61.8757 21.9777 61.1248C22.5309 60.1291 24.7435 57.3705 28.6157 52.8489C32.439 48.3927 34.8307 45.7728 35.7906 44.9893C36.5878 44.3363 37.8568 43.6181 39.5976 42.8346L41.1595 42.1245C41.8265 41.8144 42.2333 41.6022 42.3797 41.4879L48.432 36.7868L54.6795 32.0122C55.8997 31.1308 57.063 30.6003 58.1693 30.4207C59.3244 30.2412 60.1867 30.4778 60.7561 31.1308C61.1791 31.6205 61.3744 32.2571 61.3418 33.0406C61.293 33.9221 60.9514 34.7137 60.3169 35.4156Z" fill="#0D131A"/>
<path d="M35.6198 55.6157C39.1828 52.5795 41.2653 50.9309 41.8673 50.6697C42.6808 50.5555 43.8196 50.686 45.2839 51.0615C46.7644 51.4532 47.643 51.8695 47.9195 52.3102C48.0985 52.653 49.1316 55.8034 51.0189 61.7614L52.3611 65.7769C52.7028 66.6747 55.0863 69.0579 59.5116 72.9265C60.081 73.4325 60.8131 75.2199 61.708 78.2887L62.2937 80.2475L63.4407 84.6793L65.0025 91.1188C65.3442 92.441 65.6533 93.1919 65.9299 93.3714C67.02 94.1223 68.2564 95.2894 69.6393 96.8728C69.8997 97.1829 70.4528 98.3745 71.2988 100.448L73.5928 106.25L72.7387 108.185C71.4046 106.699 69.859 105.165 68.1019 103.582C64.5877 100.431 61.773 98.6602 59.658 98.2684C57.6406 97.893 55.4279 98.2521 53.02 99.3457L50.7748 100.399C50.0752 100.676 49.5546 100.725 49.213 100.546C49.034 100.448 48.912 100.113 48.8469 99.5416L48.7981 98.7336C48.912 98.4725 48.9689 98.1133 48.9689 97.6563C48.9689 96.7585 48.7005 95.8118 48.1636 94.816C47.708 93.9509 46.7969 93.1429 45.4303 92.392C43.6407 91.3963 41.5988 90.8984 39.3048 90.8984C34.6843 90.8984 29.9173 92.5716 25.0039 95.9179C21.9615 97.9909 19.1306 100.488 16.5112 103.41C16.6902 96.8156 16.8854 93.1184 17.0969 92.3186C17.7965 89.462 19.2933 84.7691 21.5873 78.2397C24.646 69.5721 27.0946 64.0711 28.933 61.7369C29.7139 60.7575 31.9429 58.7171 35.6198 55.6157Z" fill="#008086"/>
<path d="M59.0475 34.779C54.9476 39.1537 52.499 41.8388 51.7018 42.8346C51.1812 43.5038 51.0104 45.0872 51.1894 47.5846C51.3032 49.2496 51.5635 51.1839 51.9703 53.3876C52.2306 54.873 52.8895 56.8807 53.947 59.4109C55.0208 61.9573 55.9482 63.712 56.7291 64.6751L63.4159 72.5103C63.8714 73.1142 64.27 74.4528 64.6117 76.5258C65.0347 79.0722 65.3601 80.6719 65.5879 81.3249C66.0109 82.5654 66.442 83.6673 66.8813 84.6303L68.5164 87.8134C69.1184 88.9397 70.1271 90.3598 71.5425 92.0737C72.8604 93.6571 73.6494 94.4978 73.9097 94.5957L74.7883 94.3264C75.2113 94.1142 75.5448 94.0489 75.7889 94.1305C76.2444 94.2774 76.5454 94.9548 76.6918 96.1627L78.7174 97.5094L75.0567 102.308L74.5442 103.582C72.5756 99.1254 71.3066 96.579 70.7372 95.9424C68.9963 93.9346 67.5646 92.5553 66.442 91.8044C66.1329 91.4453 65.3438 88.7683 64.0748 83.7733L62.9034 79.2681L62.3177 77.3338L61.4147 74.4691C61.0568 73.6039 60.6419 72.9592 60.1701 72.5348L56.4119 68.862C54.5897 66.9849 53.5972 65.8259 53.4345 65.3852L52.0923 61.4186C49.9447 54.9546 48.7733 51.5757 48.5781 51.2819C48.1551 50.58 47.0569 50.0086 45.2835 49.5679C43.6728 49.1762 42.3794 49.0537 41.4032 49.2006C40.8013 49.2986 38.5317 51.0778 34.5944 54.5384C30.7874 57.8683 28.534 59.9822 27.8345 60.8799C25.8333 63.4264 23.2953 69.3191 20.2203 78.5581C18.6747 83.1776 17.3243 87.593 16.1692 91.8044C15.9089 92.8817 15.6893 97.1503 15.5103 104.61L15.2907 108.944C15.2907 109.319 15.2174 109.646 15.071 109.923C14.9246 110.184 14.7619 110.315 14.5829 110.315C14.3552 110.315 14.1925 110.25 14.0948 110.119C13.9159 109.923 13.802 109.548 13.7532 108.993L13.4359 103.998L13.1675 99.2233C13.1837 97.4931 13.6556 94.3998 14.5829 89.9436C15.3964 85.9607 16.1855 82.696 16.9501 80.1496C18.089 76.3299 19.4556 72.241 21.0501 67.8826C22.3842 64.2915 23.2302 62.1695 23.5881 61.5166C24.0925 60.6025 26.1668 57.9826 29.8112 53.6569C33.4718 49.2986 35.7496 46.7603 36.6444 46.0421C37.3928 45.4381 38.8733 44.6383 41.086 43.6426C42.1923 43.1365 43.2254 42.6958 44.1853 42.3204L54.9964 33.3834C55.8912 32.6325 56.7861 32.1183 57.6809 31.8408C58.6083 31.5633 59.2184 31.6286 59.5112 32.0367C60.0969 32.8855 59.9423 33.7996 59.0475 34.779Z" fill="#F29600"/>
<path d="M47.3826 58.2111C47.0084 58.0315 46.4553 57.8601 45.7232 57.6969L43.9172 57.4276C42.7784 58.2111 40.7121 59.8842 37.7185 62.447C34.5623 65.1403 32.675 66.8787 32.0568 67.6623C30.3485 69.8333 27.9812 75.171 24.9551 83.6754C22.6448 90.1068 21.1236 94.7507 20.3915 97.6073L20.2451 99.664C19.0086 100.79 17.764 102.039 16.5112 103.41C16.6902 96.8156 16.8854 93.1184 17.0969 92.3186C17.7965 89.462 19.2933 84.7691 21.5873 78.2397C24.646 69.5721 27.0946 64.0711 28.933 61.7369C29.7139 60.7575 31.9429 58.7171 35.6198 55.6157C39.1828 52.5795 41.2653 50.9309 41.8673 50.6697C42.6808 50.5555 43.8196 50.686 45.2839 51.0615C46.7644 51.4532 47.643 51.8695 47.9195 52.3102C48.0985 52.653 49.1316 55.8034 51.0189 61.7614L52.3611 65.7769C52.7028 66.6747 55.0863 69.0579 59.5116 72.9265C60.081 73.4325 60.8131 75.2199 61.708 78.2887L62.2937 80.2475L63.4407 84.6793L65.0025 91.1188C65.3442 92.441 65.6533 93.1919 65.9299 93.3714C67.02 94.1223 68.2564 95.2894 69.6393 96.8728C69.8997 97.1829 70.4528 98.3745 71.2988 100.448L73.5928 106.25L72.7387 108.185L70.6155 105.981C69.8997 104.186 69.436 103.133 69.2245 102.823C67.9554 101.354 66.8898 100.341 66.0275 99.7865C65.4581 99.3947 65.0188 98.7826 64.7097 97.9501C64.4819 97.3625 64.1158 96.0076 63.6115 93.8856L62.6109 89.7477L61.4883 85.4628L60.8782 83.4061C60.4877 82.0676 60.1054 80.4271 59.7312 78.4846L59.2919 75.9871L52.4831 70.1108C51.328 69.0497 50.5796 68.0132 50.2379 67.0012L47.3826 58.2111Z" fill="#00666C"/>
<path d="M184.73 78.3622C185.283 79.7823 185.975 83.2184 186.804 88.6703C187.602 93.8938 188 97.3462 188 99.0275V99.5661L187.927 110.266C187.715 112.274 186.869 113.261 185.389 113.229C184.738 113.212 184.274 112.91 183.998 112.323C183.738 111.768 183.607 110.854 183.607 109.58C183.607 108.781 183.526 108.046 183.363 107.377C180.093 104.145 176.66 100.921 173.065 97.7053C168.184 93.3633 164.914 90.8332 163.254 90.1149C161.253 89.2498 158.772 88.8744 155.811 88.9886C153.387 89.1029 151.662 89.413 150.637 89.9191C150.165 90.1476 149.01 91.3555 147.172 93.5428L145.049 95.8689C144.561 96.3423 144.105 96.6034 143.682 96.6524L142.755 96.53L141.315 95.9179C138.842 94.8405 137.036 94.1468 135.897 93.8367C133.245 93.1348 131 93.1592 129.161 93.9101C126.558 94.9711 123.654 96.6034 120.449 98.8071C118.009 100.488 116.374 101.745 115.544 102.578C115.267 102.888 114.429 104.414 113.03 107.156L108.833 115.457C108.621 115.849 108.149 116.061 107.417 116.093C106.897 116.093 106.49 115.873 106.197 115.432L95.1418 96.7748C94.8815 96.3504 94.8653 95.9179 95.093 95.4771C95.3371 95.0201 95.7031 94.7752 96.1912 94.7426L100.901 94.6202C101.585 92.6124 102.17 91.4208 102.658 91.0454C102.935 90.8495 103.464 90.6863 104.245 90.5557L106.514 90.6046L110.419 88.0092L116.349 83.6999C119.587 81.2188 122.353 78.5336 124.647 75.6444C125.053 74.6813 125.712 72.5184 126.623 69.1558C127.583 65.5974 128.486 61.9246 129.332 58.1376C130.113 54.6281 130.764 51.1105 131.285 47.5846C131.756 44.3689 131.968 42.3122 131.919 41.4144C131.887 40.9247 131.407 39.9535 130.479 38.5007C129.471 36.901 128.112 35.0239 126.404 32.8692C125.72 32.0204 125.273 31.1226 125.061 30.1758C124.801 29.0332 124.964 28.0375 125.55 27.1887C125.989 26.5521 126.534 26.1766 127.185 26.0624C127.901 25.9481 128.69 26.095 129.552 26.5031C130.284 26.8459 130.959 27.3029 131.577 27.8743L135.555 31.7184L139.362 35.4156C139.493 35.5299 140.062 35.685 141.071 35.8808L143.072 36.2971C143.544 36.444 145.439 37.3744 148.758 39.0884L154.176 41.7817C155.77 42.2877 157.397 42.6387 159.057 42.8346L161.009 43.1039C161.757 43.2345 162.229 43.3977 162.424 43.5936C163.563 44.6709 165.841 48.1723 169.258 54.0976L176.384 66.7074C177.848 69.2375 179.654 71.8574 181.801 74.567L184.73 78.3622Z" fill="#0D131A"/>
<path d="M178.97 73.6121L181.264 76.7217L183.143 79.5864C183.68 80.9412 184.396 84.1488 185.291 89.209C186.186 94.2202 186.633 97.4931 186.633 99.0275V104.39L186.56 109.825C186.495 110.397 186.389 110.813 186.243 111.074C186.048 111.417 185.763 111.58 185.389 111.564C185.145 111.547 184.966 111.221 184.852 110.584C184.77 110.144 184.73 109.654 184.73 109.115L184.681 106.936L183.021 88.8907V88.7928C181.411 82.8184 178.051 75.3342 172.942 66.3401C168.306 58.1948 164.604 52.7428 161.838 49.9841C161.074 49.2006 157.649 47.7887 151.564 45.7483C145.935 43.8384 142.941 42.8835 142.583 42.8835C141.575 42.8019 140.55 43.0223 139.509 43.5446C138.467 44.0833 137.67 44.8015 137.117 45.6993C136.564 46.5807 135.083 51.6083 132.675 60.782C131.96 63.5733 131.187 67.7112 130.357 73.1959C129.885 76.2973 129.576 77.9949 129.43 78.2887C129.169 78.7784 127.136 80.3944 123.329 83.1367L120.546 85.1935C119.993 85.6505 119.408 86.3769 118.789 87.3726C118.464 87.8787 118 88.703 117.398 89.8456L116.861 90.8495C116.78 90.9474 116.349 91.0862 115.568 91.2657C114.039 91.6412 112.802 91.9921 111.859 92.3186C110.622 92.743 109.003 94.7508 107.002 98.3419C105.668 100.741 104.269 103.647 102.805 107.059L96.2886 96.0893L101.926 95.6485L102.487 94.057C102.91 92.9634 103.268 92.3104 103.561 92.0982C103.968 91.8207 104.651 91.6901 105.611 91.7065L106.904 91.8044L111.517 88.6703L117.154 84.8017C117.821 84.2957 119.408 82.8266 121.913 80.3944C124.402 77.9623 125.712 76.6074 125.842 76.3299C126.672 74.5344 128.209 68.707 130.455 58.8477C132.765 48.662 133.83 42.6632 133.652 40.8513C133.586 40.2147 132.675 38.664 130.918 36.1991L127.599 31.8408C127.127 31.2532 126.802 30.5758 126.623 29.8086C126.412 28.9924 126.444 28.3395 126.721 27.8498C126.997 27.3764 127.55 27.3029 128.38 27.6294C129.112 27.9069 129.861 28.3966 130.625 29.0985L134.579 33.1385L138.215 36.8357L140.289 37.1785L143.145 37.7907C143.812 38.0192 147.277 39.6433 153.541 42.6632L157.787 43.8629C159.951 44.4179 161.123 44.777 161.302 44.9403C162.847 46.4257 166.166 51.5267 171.259 60.2433L178.97 73.6121Z" fill="#F29600"/>
<path d="M182.192 89.0866L183.705 105.981C180.321 102.782 177.075 99.8273 173.968 97.1176C168.94 92.743 165.524 90.1639 163.718 89.3804C161.521 88.4337 158.869 88.0664 155.762 88.2786C153.289 88.4418 151.434 88.8336 150.198 89.4539C149.661 89.715 148.522 90.8087 146.781 92.7348C145.171 94.4978 144.056 95.4363 143.438 95.5506C143.064 95.6322 142.331 95.4527 141.241 95.0119L137.849 93.6408C134.433 92.4329 131.463 92.3431 128.942 93.3715C126.143 94.5304 123.093 96.1056 119.79 98.097C117.008 99.7783 115.267 100.954 114.568 101.623C114.145 102.047 112.819 104.357 110.59 108.552L107.368 114.722L104.025 109.336C106.4 103.41 107.718 100.154 107.978 99.5661C109.54 96.073 110.801 94.1631 111.761 93.8367C112.444 93.5918 113.795 93.2572 115.812 92.8328L117.032 92.5145L117.765 91.9758L118.399 90.825L119.522 88.2296C120.059 87.0707 120.547 86.3035 120.986 85.928L122.23 85.1445L123.988 84.0427L128.356 80.8107C129.544 79.8803 130.235 79.211 130.43 78.8029L130.87 77.0645L131.455 73.3673L132.285 67.5399C132.659 65.0587 133.058 63.0101 133.481 61.3941L136.092 51.4043C136.873 48.4987 137.353 46.8991 137.532 46.6052C137.971 45.9197 138.736 45.3728 139.826 44.9647C140.818 44.573 141.746 44.4179 142.608 44.4995C143.422 44.6301 146.383 45.5769 151.491 47.3398C157.072 49.2496 160.171 50.5147 160.789 51.1349C163.62 53.9915 167.346 59.3129 171.966 67.0991C177.221 75.9463 180.63 83.2755 182.192 89.0866Z" fill="#008086"/>
<path d="M179.727 102.284L179.068 94.963C177.539 89.3314 174.212 82.2063 169.087 73.5876C164.596 66.0626 161.017 60.9371 158.349 58.2111C157.552 57.6561 154.753 56.5543 149.954 54.9056C145.659 53.4365 142.803 52.5224 141.388 52.1633C140.9 52.147 140.363 52.2531 139.777 52.4816C139.191 52.6938 138.793 52.9223 138.581 53.1672C138.337 53.8201 137.329 57.5418 135.555 64.3323L134.774 67.3929C134.254 69.3681 133.725 72.3307 133.188 76.281L132.798 79.1212L132.09 83.3081C131.927 84.1896 131.74 84.8262 131.529 85.218C131.236 85.8219 130.585 86.5483 129.576 87.3971L124.402 91.3147L122.328 92.6124L121.523 93.1021C115.698 98.3582 112.428 101.109 111.712 101.354C110.801 102.104 108.987 105.965 106.27 112.935V112.959L104.025 109.336C106.4 103.41 107.718 100.154 107.978 99.5661C109.54 96.0729 110.801 94.1631 111.761 93.8367C112.444 93.5918 113.795 93.2572 115.812 92.8328L117.032 92.5145L117.765 91.9758L118.399 90.825L119.522 88.2296C120.059 87.0707 120.547 86.3035 120.986 85.928L122.23 85.1445L123.988 84.0427L128.356 80.8107C129.544 79.8802 130.235 79.211 130.43 78.8029L130.87 77.0645L131.455 73.3673L132.285 67.5398C132.659 65.0587 133.058 63.0101 133.481 61.3941L136.092 51.4043C136.873 48.4987 137.353 46.8991 137.532 46.6052C137.971 45.9197 138.736 45.3728 139.826 44.9647C140.818 44.573 141.746 44.4179 142.608 44.4995C143.422 44.6301 146.383 45.5769 151.491 47.3398C157.072 49.2496 160.171 50.5147 160.789 51.1349C163.62 53.9915 167.346 59.3129 171.966 67.0991C177.221 75.9463 180.63 83.2755 182.192 89.0866L183.705 105.981L179.727 102.284Z" fill="#00666C"/>
<path d="M30.9588 107.303L30.4707 107.205L29.6165 106.593C29.0471 105.94 28.803 105.132 28.8844 104.169C28.9332 103.516 29.527 102.447 30.6659 100.962C31.6095 99.7212 32.3173 98.9051 32.7891 98.5133L32.9843 98.3419L32.0081 95.673L31.8617 95.3792C31.6339 94.9058 31.5038 94.4896 31.4712 94.1305C31.4387 93.6734 31.5282 93.1593 31.7397 92.5879C32.1302 91.6249 32.7972 90.9475 33.7408 90.5557C34.3916 90.2945 35.319 90.1803 36.5229 90.2129L38.4021 90.4333C38.9552 90.6618 39.8582 91.6657 41.1109 93.4449L41.5258 93.6163L42.0627 93.7632L43.8686 92.9063C44.6984 92.286 45.3085 91.9024 45.6989 91.7555C46.2196 91.5596 46.8053 91.5514 47.4561 91.731C48.3509 91.9595 49.1155 92.8165 49.7501 94.3019C50.3032 95.6241 50.4985 96.6688 50.3358 97.436C50.2707 97.7788 50.051 98.3419 49.6768 99.1254L48.5786 101.28L48.3102 101.77L48.3834 102.333C51.6536 105.287 53.7849 106.634 54.7773 106.373L56.6809 105.908C57.9662 105.581 59.1864 105.173 60.3415 104.683C62.245 103.884 63.872 103.084 65.2224 102.284C65.6128 101.256 65.9382 100.546 66.1985 100.154C66.8656 99.207 67.8418 98.4562 69.1271 97.9012C70.2171 97.4278 71.9905 97.1666 74.4472 97.1177C75.8952 97.085 77.1805 97.1095 78.3031 97.1911L80.109 97.3625L73.8615 110.829L72.9341 110.658L68.7122 109.287L65.9301 110.682L62.0254 112.568L60.3659 113.449L58.9505 114.306C57.4049 115.122 56.1847 115.571 55.2898 115.653C53.2399 115.8 50.7588 115 47.8465 113.253C46.0406 112.16 44.1859 110.788 42.2823 109.14C41.6804 109.483 41.1353 109.662 40.6473 109.678C39.9639 109.711 39.2155 109.491 38.4021 109.017C37.9302 108.756 37.4096 108.25 36.8402 107.499L35.742 105.859L35.1563 107.059L34.7414 107.499L30.9588 107.303Z" fill="#0D131A"/>
<path d="M31.0075 106.03C30.8123 106.03 30.6252 105.957 30.4462 105.81C30.072 105.516 29.9093 105.026 29.9582 104.341C29.9907 103.851 30.1697 103.345 30.495 102.823L31.7397 101.231L33.3015 99.7375L34.2777 98.8561C34.4567 98.5786 34.0825 97.3543 33.1551 95.1833C32.7321 94.2039 32.5206 93.551 32.5206 93.2245C32.5043 92.4573 33.0331 91.8534 34.1069 91.4126L36.3521 91.2902L37.9872 91.5596L39.0121 92.7348L40.0859 94.1794C40.4113 94.6365 40.9889 94.8977 41.8186 94.963L44.137 93.8367C44.6902 93.4122 45.1702 93.1592 45.5769 93.0776L46.9435 93.2C47.4479 93.3306 47.936 93.9672 48.4078 95.1099C48.8471 96.1872 49.0179 96.9626 48.9203 97.4359C48.8552 97.7951 48.5868 98.448 48.1149 99.3947L47.1876 101.231C46.9598 101.688 46.9923 102.292 47.2852 103.043L50.3845 105.516C52.6785 107.116 54.4031 107.76 55.5582 107.45L57.8278 106.667L61.2444 105.345L66.2717 103.214C66.3531 102.774 66.5727 102.268 66.9306 101.696C67.6628 100.554 68.7691 99.6641 70.2496 99.0275C71.2421 98.6031 72.869 98.3827 75.1305 98.3664L78.2054 98.4643L73.1293 109.434L69.5419 107.548C66.1904 109.295 63.5222 110.576 61.5373 111.392C60.8214 111.702 59.5931 112.306 57.8522 113.204C56.7134 113.808 55.8755 114.126 55.3386 114.159C53.4839 114.306 51.1492 113.523 48.3346 111.809C46.61 110.748 44.8529 109.442 43.0633 107.891C42.9982 107.842 43.0795 107.614 43.3073 107.205L43.6734 106.593L42.3799 107.499C42.1522 107.76 41.8268 107.956 41.4038 108.087C40.574 108.364 39.6629 108.226 38.6705 107.671C37.8245 107.181 37.1167 106.479 36.5473 105.565L35.9616 104.341L34.2289 106.202L31.0075 106.03Z" fill="#F29600"/>
<path d="M46.8949 97.8767L44.9181 99.0764C43.8118 99.6151 43.0471 99.8926 42.6241 99.9089C42.3638 99.9089 42.1442 99.8355 41.9652 99.6886C41.6561 99.3621 41.6154 98.5296 41.8432 97.1911C42.0547 95.9505 42.3069 95.0854 42.5997 94.5957C42.9902 93.9917 43.519 93.551 44.186 93.2735L46.0651 93.2C46.6346 93.4122 47.0494 93.804 47.3098 94.3753C47.5375 94.865 47.6026 95.3955 47.505 95.9669L47.4562 96.3096C47.3586 97.0442 47.1715 97.5665 46.8949 97.8767Z" fill="#0D131A"/>
<path d="M45.9914 93.396L44.2587 93.4939C43.6404 93.7551 43.1524 94.1631 42.7944 94.7181C42.5178 95.1589 42.2738 95.9832 42.0623 97.1911C41.8508 98.4807 41.8752 99.256 42.1355 99.5172C42.2494 99.6315 42.404 99.6886 42.5992 99.6886C42.9897 99.6723 43.7299 99.4029 44.82 98.8806C45.8775 98.3582 46.512 97.9746 46.7235 97.7298C46.9838 97.436 47.1547 96.9544 47.236 96.2852L47.2848 95.9424C47.3662 95.4037 47.3092 94.9059 47.114 94.4488C46.8862 93.9428 46.512 93.5918 45.9914 93.396ZM42.404 94.4733C42.827 93.8204 43.3964 93.3551 44.1123 93.0776L46.1378 92.9797C46.6747 93.1919 47.0896 93.5429 47.3824 94.0326C47.6427 94.4733 47.7729 94.963 47.7729 95.5017L47.6753 96.3586C47.5777 97.1258 47.3743 97.6808 47.0652 98.0236C46.8211 98.3174 46.1378 98.7337 45.0152 99.2723C43.8601 99.8273 43.0629 100.113 42.6236 100.129C42.2982 100.146 42.0298 100.048 41.8182 99.8355C41.4441 99.4601 41.379 98.5623 41.623 97.1421C41.8345 95.8853 42.0948 94.9956 42.404 94.4733Z" fill="#0D131A"/>
<path d="M45.6496 96.6034C45.3568 96.9626 44.2667 97.8277 42.3795 99.1989C42.233 99.0519 42.2249 98.4235 42.3551 97.3135C42.5015 96.1872 42.6967 95.3955 42.9408 94.9385C43.2173 94.4651 43.6078 94.106 44.1122 93.8611C44.6328 93.6 45.1127 93.551 45.552 93.7142C46.0238 93.8775 46.3492 94.2039 46.5282 94.6936C46.4794 95.1507 46.3736 95.5343 46.2109 95.8444L45.6496 96.6034Z" fill="white"/>
<path d="M46.2358 97.3135C46.0568 97.542 45.4142 97.942 44.3078 98.5133C43.1527 99.1009 42.51 99.3294 42.3799 99.1988C44.2671 97.8277 45.3572 96.9626 45.6501 96.6035L46.2114 95.8444C46.3741 95.5343 46.4798 95.1507 46.5286 94.6936C46.6425 95.0038 46.6832 95.3384 46.6506 95.6975L46.5286 96.6279L46.2358 97.3135Z" fill="#DBDCDC"/>
<path d="M30.6414 104.071C30.9668 103.794 31.4305 103.598 32.0325 103.484C32.667 103.369 33.2201 103.5 33.6919 103.875C34.0173 104.137 34.2451 104.463 34.3753 104.855L35.6443 106.863C35.8233 107.059 36.1486 107.238 36.6205 107.401L37.377 107.622L37.0353 108.332C36.6774 109.066 35.6362 109.385 33.9116 109.287L31.9348 109.017C31.2515 108.805 30.7065 108.397 30.2998 107.793C30.0232 107.385 29.8523 106.92 29.7873 106.397C29.7222 105.891 29.7791 105.451 29.9581 105.075L30.0313 104.953C30.194 104.577 30.3974 104.284 30.6414 104.071Z" fill="#0D131A"/>
<path d="M30.7144 104.169C30.5029 104.349 30.3077 104.618 30.1287 104.977L30.0555 105.124C29.8928 105.483 29.8359 105.908 29.8847 106.397C29.9497 106.903 30.1124 107.352 30.3728 107.744C30.7795 108.315 31.3083 108.699 31.959 108.895L33.9114 109.164C35.6034 109.262 36.604 108.968 36.9131 108.283L37.2304 107.695L36.5958 107.499C36.0752 107.32 35.7254 107.132 35.5465 106.936C35.3187 106.675 34.9038 106.022 34.3018 104.977L34.2774 104.953L34.2042 104.83C34.0741 104.455 33.8544 104.145 33.5453 103.9C33.1223 103.573 32.6179 103.467 32.0322 103.582C31.4628 103.696 31.0235 103.892 30.7144 104.169ZM30.2019 107.867C29.8277 107.312 29.6406 106.708 29.6406 106.055C29.6406 105.663 29.7138 105.32 29.8603 105.026L29.9335 104.904C30.1287 104.496 30.3402 104.194 30.568 103.998C30.9096 103.688 31.3896 103.476 32.0078 103.361C32.6261 103.247 33.163 103.361 33.6185 103.704C33.9602 103.949 34.2205 104.284 34.3995 104.708L35.7173 106.789C35.88 106.985 36.1972 107.148 36.6691 107.279L37.4012 107.524L37.4744 107.573L37.4988 107.622L37.1327 108.381C36.7585 109.148 35.6848 109.483 33.9114 109.385L31.9102 109.115C31.1944 108.887 30.6249 108.47 30.2019 107.867Z" fill="#0D131A"/>
<path d="M30.5923 105.369L30.9828 104.757C31.2268 104.528 31.5929 104.373 32.0809 104.292C32.5853 104.194 32.9839 104.324 33.2768 104.683C33.4395 104.847 33.5452 105.026 33.594 105.222L34.1309 106.128L34.9606 107.352C35.221 107.646 35.644 107.883 36.2297 108.062C33.3012 108.487 31.422 107.589 30.5923 105.369Z" fill="white"/>
<path d="M30.8124 107.45C30.6009 107.14 30.4708 106.789 30.422 106.397C30.3894 106.038 30.4301 105.736 30.544 105.492L30.5928 105.369C31.4226 107.589 33.3017 108.487 36.2302 108.062C36.1814 108.177 36.035 108.283 35.7909 108.381L33.8142 108.601L32.1059 108.405C31.569 108.242 31.1378 107.924 30.8124 107.45Z" fill="#DBDCDC"/>
<path d="M36.2541 93.1511C36.7584 93.7224 36.9699 94.3835 36.8886 95.1343C36.8398 95.8036 36.6364 96.277 36.2785 96.5545L35.2291 97.5339L34.1797 98.7091C33.9845 99.0193 33.8706 99.5335 33.838 100.252L33.6672 100.888L32.9595 100.864C32.5365 100.733 32.1297 100.48 31.7393 100.105C30.9583 99.3376 30.5679 98.3011 30.5679 96.9952C30.5679 95.7546 31.0966 94.4161 32.1541 92.9797C32.2843 92.8001 32.5528 92.6287 32.9595 92.4655C33.3337 92.3349 33.6835 92.2614 34.0089 92.2451C34.92 92.1961 35.6684 92.4981 36.2541 93.1511Z" fill="#0D131A"/>
<path d="M31.9593 92.8573C32.122 92.6287 32.4311 92.4328 32.8867 92.2696L33.9849 92.0248C34.9936 91.9758 35.8071 92.3023 36.4253 93.0042C36.9459 93.6081 37.1818 94.3263 37.133 95.1588C37.0517 95.8771 36.8158 96.4076 36.4253 96.7504L35.4003 97.6808C34.8472 98.2358 34.5055 98.6194 34.3753 98.8316C34.1964 99.0927 34.0906 99.5824 34.0581 100.301L33.8873 100.937L33.814 101.06L32.9599 101.084H32.9111C32.5043 101.003 32.0651 100.725 31.5933 100.252C30.7635 99.4519 30.3486 98.3664 30.3486 96.9952C30.3486 95.7383 30.8855 94.359 31.9593 92.8573ZM35.0831 97.387L36.1324 96.3831C36.4416 96.1546 36.6205 95.7302 36.6693 95.1099L36.6937 94.914C36.6937 94.3263 36.4904 93.7877 36.0836 93.298C35.5793 92.7267 34.8878 92.4492 34.0093 92.4655L33.0575 92.6859L32.3254 93.1266C31.3004 94.5304 30.7879 95.8199 30.7879 96.9952C30.7879 98.2031 31.1377 99.1662 31.8373 99.8844C32.2115 100.276 32.602 100.529 33.0087 100.643L33.4968 100.668L33.6188 100.227C33.6188 99.5253 33.7408 98.9785 33.9849 98.5867C34.1313 98.3582 34.4974 97.9583 35.0831 97.387Z" fill="#0D131A"/>
<path d="M35.2782 95.6975L33.7896 97.0442C33.1388 97.8767 32.9842 98.8643 33.3259 100.007V100.129C33.0168 100.031 32.6995 99.8273 32.3741 99.5172C31.7396 98.8806 31.4224 98.0073 31.4224 96.8973C31.4224 96.2444 31.5932 95.5261 31.9349 94.7426C32.1952 94.155 32.488 93.649 32.8134 93.2246C33.0249 92.9634 33.4805 92.8328 34.18 92.8328C34.961 92.8491 35.5386 93.0776 35.9128 93.5184L36.1568 93.8367C35.9941 94.6528 35.7012 95.2731 35.2782 95.6975Z" fill="white"/>
<path d="M36.0342 95.9423C34.8628 96.8238 34.1063 97.5175 33.7646 98.0236C33.5369 98.399 33.3904 99.0601 33.3254 100.007C32.9837 98.8642 33.1383 97.8767 33.789 97.0442L35.2777 95.6975C35.7007 95.2731 35.9936 94.6528 36.1563 93.8366C36.384 94.2447 36.4572 94.6854 36.3759 95.1588C36.3108 95.5506 36.1969 95.8118 36.0342 95.9423Z" fill="#DBDCDC"/>
<path d="M35.9614 101.525C35.9614 100.415 36.3763 99.4111 37.206 98.5133C38.0521 97.6155 39.012 97.1503 40.0857 97.1176C38.8655 98.7173 38.3774 100.064 38.6215 101.158C38.7842 101.892 39.4431 102.512 40.5982 103.018C41.5581 103.443 42.5018 103.671 43.4291 103.704L42.3553 104.928C41.9323 105.287 41.4361 105.467 40.8667 105.467C39.679 105.467 38.5808 105.092 37.5721 104.341C36.4983 103.525 35.9614 102.586 35.9614 101.525Z" fill="#D18200"/>
<path d="M39.549 97.8767C40.3299 96.6361 40.7855 96.0811 40.9156 96.2117L39.915 97.9501C39.248 99.2397 38.9958 100.268 39.1585 101.035C39.3049 101.623 39.8906 102.17 40.9156 102.676C41.8755 103.149 42.7622 103.386 43.5757 103.386C44.1451 103.386 44.7552 103.247 45.406 102.97L46.2114 102.602C45.4792 103.337 44.5844 103.704 43.5269 103.704C42.6158 103.704 41.6559 103.484 40.6472 103.043C39.4595 102.537 38.7843 101.909 38.6216 101.158C38.4264 100.293 38.7355 99.1989 39.549 97.8767Z" fill="#0D131A"/>
<path d="M66.735 123.586L68.0773 122.949L83.8912 159.236L81.9145 159.481C80.7268 159.628 79.71 159.832 78.8639 160.093C78.4897 160.223 77.7902 160.672 76.7652 161.44L75.1789 162.492C75.667 163.178 76.0493 164.141 76.3259 165.382C76.5862 166.541 76.6513 167.332 76.5211 167.757C76.3584 168.328 76.0575 168.826 75.6182 169.25C75.2114 169.642 74.764 169.911 74.2759 170.058C72.4375 170.45 70.9732 170.874 69.8832 171.331C69.1836 171.609 68.1342 172.213 66.735 173.143L64.7095 174.588L63.9041 175.371C63.4974 175.649 63.0012 175.837 62.4155 175.935C61.9274 176.016 61.1139 175.877 59.975 175.518L58.1691 175.935L56.2412 176.424C55.3789 176.718 54.6305 177.012 53.996 177.306L53.0442 177.771C52.5561 177.999 52.1982 178.089 51.9704 178.04C51.6288 177.959 51.4986 177.608 51.58 176.987C51.6613 176.4 51.881 175.706 52.2389 174.906L52.7514 173.878L48.3098 174.098C47.7566 174.196 47.2279 174.343 46.7235 174.539L45.6497 175.004L44.7468 175.078C44.5841 174.98 44.5271 174.808 44.5759 174.563C44.641 174.041 44.8037 173.478 45.064 172.874C45.5684 171.65 46.3656 170.532 47.4556 169.52L45.5521 169.471C44.641 169.487 43.9089 169.617 43.3557 169.862C42.526 170.254 42.2819 169.895 42.6236 168.785C42.9002 167.887 43.7381 166.892 45.1372 165.798C45.9182 165.21 46.7642 164.696 47.6753 164.255C48.44 163.88 49.0826 163.635 49.6032 163.521L49.8473 163.472L50.4086 163.423L53.4347 161.513C54.2807 160.925 55.1023 160.215 55.8995 159.383L57.0221 158.012L57.2662 156.885L55.8263 155.808C55.0616 155.204 54.4597 154.608 54.0204 154.021C52.3284 151.735 51.3522 149.728 51.0919 147.997C50.6201 144.749 51.7183 140.84 54.3865 136.269C56.1761 133.184 58.9989 130.017 62.8547 126.769C65.946 124.418 67.2394 123.357 66.735 123.586Z" fill="#0D131A"/>
<path d="M63.3672 127.577C64.3271 126.777 65.2708 126.1 66.1981 125.545L67.3207 124.933L81.7192 158.012C80.4665 158.159 79.3683 158.379 78.4247 158.673C77.9203 158.836 77.2777 159.252 76.4967 159.921C75.6182 160.672 74.943 161.162 74.4712 161.391C74.1946 161.537 73.7634 161.807 73.1777 162.199L72.3968 162.737L73.0801 162.835C73.5519 162.9 73.8692 162.982 74.0319 163.08C74.2271 163.211 74.4305 163.635 74.642 164.353L75.0813 166.385C74.7559 166.908 74.0238 167.406 72.8849 167.879C72.0714 168.206 71.2091 168.475 70.298 168.687C69.452 168.883 68.5409 169.169 67.5648 169.544C66.4096 169.968 65.5229 170.393 64.9047 170.817L63.0744 171.968C62.4887 172.295 61.968 172.482 61.5125 172.531L60.2923 174.368C58.8606 173.894 57.2255 173.184 55.387 172.237C53.4184 171.209 51.9135 170.254 50.8722 169.373C49.6845 168.377 49.0012 167.438 48.8223 166.557L48.9199 165.529L54.4353 162.076C55.3952 161.407 56.2737 160.623 57.0709 159.726C57.6892 159.024 58.0796 158.477 58.2423 158.085L58.3399 157.4L59.2917 157.693L61.8786 157.889L60.5363 157.595L59.4869 157.204C59.2266 157.122 58.8931 156.959 58.4864 156.714L57.9251 156.347C57.3719 155.988 56.5747 155.106 55.5334 153.702C54.2319 151.988 53.4428 150.07 53.1662 147.948C52.6944 144.569 53.5323 140.913 55.6799 136.979C57.7461 133.208 60.3086 130.074 63.3672 127.577Z" fill="#F29600"/>
<path d="M72.8851 167.879C74.024 167.406 74.7561 166.908 75.0815 166.385C75.1628 167.071 75.1791 167.487 75.1303 167.634C74.935 168.14 74.5608 168.548 74.0077 168.858L72.641 169.373L69.7125 170.279C69.3709 170.344 68.5167 170.793 67.1501 171.625L64.6364 173.192L63.6359 174.049C63.2129 174.408 62.7085 174.637 62.1228 174.735C61.7974 174.784 61.1873 174.661 60.2925 174.368L61.5127 172.531C61.9682 172.482 62.4889 172.295 63.0746 171.968L64.9049 170.817C65.5231 170.393 66.4098 169.968 67.565 169.544C68.5411 169.169 69.4522 168.883 70.2982 168.687C71.2093 168.475 72.0716 168.206 72.8851 167.879Z" fill="#D18200"/>
<path d="M59.7311 158.648C59.4057 158.436 59.2674 158.297 59.3162 158.232L59.8043 158.379L60.8293 158.722L62.1715 158.844L62.928 158.942L62.1959 159.138L60.8537 159.089C60.4795 159.024 60.1053 158.877 59.7311 158.648Z" fill="#0D131A"/>
<path d="M67.2479 155.637C65.3769 152.878 64.4414 149.801 64.4414 146.406C64.4414 143.745 65.0352 141.248 66.2229 138.913C67.3781 136.661 68.9562 134.8 70.9574 133.331L81.7196 158.012C80.4669 158.159 79.3687 158.379 78.4251 158.673C77.9207 158.836 77.2781 159.252 76.4971 159.921C75.6186 160.672 74.9434 161.162 74.4716 161.391L74.4472 161.415C71.4861 160.272 69.0864 158.346 67.2479 155.637Z" fill="#D18200"/>
<path d="M50.3111 164.427C50.5389 164.361 50.7341 164.459 50.8968 164.721C51.0758 164.998 51.1978 165.414 51.2629 165.969C51.3442 166.769 51.2629 167.716 51.0188 168.81H45.7719C45.2188 168.842 44.5598 168.989 43.7952 169.25L42.819 169.642C42.7539 169.446 42.8109 169.16 42.9898 168.785C43.3315 168.05 44.0799 167.251 45.235 166.385C46.016 165.798 47.0409 165.316 48.31 164.941L50.3111 164.427Z" fill="white"/>
<path d="M47.9681 167.781C49.7741 167.651 50.7502 167.398 50.8967 167.022H50.9211L50.7502 168.467L45.7473 168.491C45.2267 168.508 44.641 168.622 43.9902 168.834C45.0152 168.263 46.3412 167.912 47.9681 167.781Z" fill="#DBDCDC"/>
<path d="M49.9204 164.182L50.2133 164.108L50.8722 164.206C51.2626 164.467 51.5067 165.047 51.6043 165.945V167.047L50.921 167.022V166.018C50.8559 165.365 50.7176 164.949 50.5061 164.769C50.2133 164.574 49.4893 164.696 48.3341 165.137C47.1953 165.561 46.2272 166.067 45.43 166.655C44.2098 167.569 43.4696 168.385 43.2092 169.103L43.9902 168.834L44.4783 169.397L42.9408 169.96H42.6723C42.5585 169.911 42.4934 169.838 42.4771 169.74C42.4283 169.413 42.4934 169.062 42.6723 168.687C43.0303 167.887 43.8193 167.03 45.0396 166.116C46.1133 165.316 47.7403 164.672 49.9204 164.182Z" fill="#0D131A"/>
<path d="M45.7717 169.152L44.4783 169.397L43.9902 168.834C44.641 168.622 45.2267 168.508 45.7473 168.491L50.7502 168.467L50.921 167.022L51.6044 167.047L51.3603 168.883C51.3115 169.063 51.1976 169.152 51.0187 169.152H45.7717Z" fill="#0D131A"/>
<path d="M50.0426 172.041C48.2204 172.531 46.7805 173.217 45.723 174.098L46.1379 174.245L45.0153 174.735C44.9827 174.408 45.0641 173.992 45.2593 173.486C45.6172 172.458 46.325 171.47 47.3825 170.523C48.1146 169.887 49.1477 169.152 50.4818 168.32L52.5806 167.096C52.8246 166.949 53.2395 167.153 53.8252 167.708C54.476 168.295 54.9071 168.956 55.1186 169.691L55.2407 170.156L54.2401 170.964C53.8008 171.225 53.4022 171.389 53.0443 171.454L50.0426 172.041Z" fill="white"/>
<path d="M48.554 173.437C48.0822 173.519 47.2769 173.788 46.138 174.245L45.7231 174.098C46.7807 173.217 48.2205 172.531 50.0427 172.041L53.0444 171.454C53.4024 171.389 53.801 171.225 54.2402 170.964L55.2408 170.156C55.4523 171.119 55.493 172.033 55.3628 172.898L48.554 173.437Z" fill="#DBDCDC"/>
<path d="M45.4547 174.074L45.7231 174.049C47.0572 173.494 47.9846 173.176 48.5052 173.094L55.0456 172.58C55.1432 171.568 55.0618 170.638 54.8015 169.789C54.6226 169.169 54.2646 168.589 53.7277 168.05C53.2722 167.61 52.9387 167.389 52.7272 167.389L52.6051 167.463C50.2623 168.785 48.5947 169.887 47.6023 170.768C46.5122 171.731 45.8126 172.743 45.5035 173.804L45.4547 174.074ZM46.5041 174.465C45.6581 174.808 45.2106 175.004 45.1618 175.053L44.8446 175.029L44.6738 174.759C44.6575 174.384 44.747 173.919 44.9422 173.364C45.3164 172.286 46.0567 171.258 47.163 170.279C48.2042 169.332 49.9044 168.197 52.2635 166.875L52.4099 166.802C52.5726 166.704 52.8085 166.704 53.1176 166.802C53.5081 166.965 53.9392 167.316 54.4111 167.855C54.948 168.442 55.3303 169.062 55.5581 169.715C55.8672 170.597 55.9892 171.389 55.9241 172.09L55.7045 172.947C55.6719 173.111 55.5662 173.209 55.3872 173.241L48.6272 173.755C48.1717 173.821 47.464 174.057 46.5041 174.465Z" fill="#0D131A"/>
<path d="M57.3397 170.328C57.535 170.164 58.0637 170.295 58.926 170.719C59.8371 171.16 60.4716 171.642 60.8296 172.164L60.9272 172.335L60.5123 172.115C60.5123 172.703 60.2195 173.135 59.6338 173.413L56.7296 174.637C54.9563 175.437 53.7605 176.139 53.1422 176.743L53.3619 176.938L52.4833 177.33C52.3531 177.118 52.3125 176.816 52.3613 176.424C52.4264 175.641 52.8656 174.833 53.6791 174C55.5826 171.993 56.8029 170.768 57.3397 170.328Z" fill="white"/>
<path d="M61.4151 174.172L56.6319 175.714C55.8347 175.975 54.7446 176.383 53.3617 176.938L53.1421 176.743C53.7603 176.139 54.9561 175.437 56.7295 174.637L59.6336 173.413C60.2193 173.135 60.5122 172.703 60.5122 172.115L60.9271 172.335C61.3501 173.037 61.5128 173.649 61.4151 174.172Z" fill="#DBDCDC"/>
<path d="M60.5367 172.36C60.2439 171.919 59.707 171.495 58.926 171.087C58.2427 170.727 57.7709 170.564 57.5106 170.597L53.8987 174.245C53.1503 175.012 52.7436 175.747 52.6785 176.449C52.646 176.726 52.7843 176.808 53.0934 176.694L56.51 175.396L59.2921 174.539L60.976 173.902C61.1387 173.511 60.9923 172.996 60.5367 172.36ZM57.1201 170.058C57.2503 169.96 57.4618 169.919 57.7546 169.936C58.2427 170.001 58.8284 170.23 59.5117 170.621C60.2439 171.046 60.7726 171.495 61.098 171.968C61.5373 172.621 61.7813 173.225 61.8301 173.78C61.8789 174.155 61.8301 174.433 61.6837 174.612C61.6349 174.694 61.4559 174.759 61.1468 174.808L59.4873 175.2L56.7296 176.033C55.8023 176.343 54.8424 176.702 53.8499 177.11L52.6297 177.624C52.4508 177.706 52.3043 177.665 52.1904 177.502C52.044 177.224 51.9871 176.865 52.0196 176.424C52.0684 175.559 52.5402 174.67 53.4351 173.755C55.485 171.633 56.7134 170.401 57.1201 170.058Z" fill="#0D131A"/>
<path d="M94.4338 57.5745C94.7754 57.6561 95.052 57.8356 95.2635 58.1131C95.475 58.3906 95.5727 58.7089 95.5564 59.0681L95.2635 66.9767C95.1171 72.5429 95.1334 76.183 95.3123 77.897C95.5401 79.9537 96.1909 82.6634 97.2647 86.026C98.4198 89.6171 99.6644 92.6206 100.999 95.0364C101.682 96.2607 103.154 98.6275 105.416 102.137L111.248 111.441C113.396 115.049 114.893 117.922 115.739 120.06C117.772 125.234 119.212 129.495 120.058 132.841C121.604 138.881 122.068 144.21 121.449 148.83C120.766 153.857 118.684 157.791 115.202 160.632C111.785 163.439 107.254 164.974 101.609 165.235C94.8405 165.545 88.6906 164.525 83.159 162.174C75.8865 159.105 70.1108 153.898 65.832 146.553C61.8947 139.779 60.8291 132.172 62.635 123.733C63.9528 117.579 66.8488 110.903 71.3229 103.704C75.2927 97.289 77.7006 88.4581 78.5466 77.2114C78.8069 73.5223 78.392 68.7641 77.302 62.9367L75.5693 55.1994C75.5367 54.9872 75.6669 54.7669 75.9597 54.5383L76.7163 53.9997C77.1067 53.6242 77.5704 53.5018 78.1073 53.6324L94.4338 57.5745Z" fill="#0D131A"/>
<path d="M68.7607 148.438C74.4876 153.237 80.5643 156.249 86.9907 157.473C93.4335 158.697 99.0221 157.873 103.756 155C104.7 157.71 105.872 159.652 107.271 160.827C107.921 161.399 108.768 161.921 109.809 162.394C107.417 163.39 104.684 163.961 101.609 164.108C95.6055 164.37 90.1308 163.57 85.1848 161.709C78.4492 159.162 72.9745 154.739 68.7607 148.438Z" fill="#DDD583"/>
<path d="M64.8803 120.795C66.3445 116.616 68.2074 113.278 70.4689 110.78C73.6089 107.32 77.3021 105.744 81.5484 106.055C86.6408 106.446 91.1637 110.38 95.1172 117.856C98.6477 124.533 100.641 131.576 101.096 138.987C101.519 145.843 102.406 151.18 103.756 155C99.0219 157.873 93.4333 158.697 86.9906 157.473C80.5641 156.249 74.4874 153.237 68.7606 148.438L67.3939 146.259C63.0825 138.864 62.2446 130.376 64.8803 120.795Z" fill="#FFF697"/>
<path d="M102.219 107.915C102.219 106.006 102.813 104.259 104.001 102.676C108.328 109.401 111.273 114.29 112.835 117.342H112.737C109.825 117.342 107.344 116.42 105.294 114.575C103.244 112.747 102.219 110.527 102.219 107.915Z" fill="#D18200"/>
<path d="M94.068 59.0436L94.0436 60.1944L93.946 69.6455C93.946 72.8939 94.0029 75.3669 94.1168 77.0645L94.19 77.897C94.4341 80.2475 95.0604 83.1286 96.0692 86.5402C97.1755 90.2945 98.3876 93.3633 99.7054 95.7465L107.027 107.426C110.801 113.4 113.242 117.791 114.348 120.599C116.398 125.822 117.854 130.14 118.716 133.551C120.148 139.248 120.571 144.276 119.985 148.634C119.562 151.784 118.554 154.494 116.959 156.763C115.446 158.934 113.437 160.64 110.931 161.88C109.646 161.391 108.613 160.811 107.832 160.142C106.27 158.803 105.066 156.494 104.22 153.213C103.439 150.095 102.87 145.63 102.512 139.819C102.3 136.261 101.698 132.49 100.706 128.507C99.6485 124.263 98.3388 120.615 96.7769 117.563C95.0686 114.216 93.0837 111.425 90.8222 109.189C87.9263 106.332 84.9164 104.79 81.7927 104.561C76.3424 104.153 71.6079 107.059 67.5894 113.278C68.8746 110.388 70.4203 107.483 72.2262 104.561C76.3586 97.9338 78.8397 89.0458 79.6695 77.897C79.8159 75.7097 79.6695 72.747 79.2302 69.0089C78.7584 65.075 78.132 61.843 77.3511 59.3129L77.7659 55.1994V55.1015L94.068 59.0436Z" fill="#F29600"/>
<path d="M94.068 59.0436L94.0436 60.1944L93.946 69.6455C93.946 72.8939 94.0029 75.3669 94.1168 77.0645L94.19 77.897L94.6781 81.031C91.7171 81.8309 88.8292 81.2432 86.0146 79.2681C83.6718 77.6195 81.4998 75.0894 79.4987 71.6778C79.0919 66.7645 78.3761 62.6429 77.3511 59.3129L77.7659 55.1994V55.1015L94.068 59.0436Z" fill="#D18200"/>
<path d="M121.108 127.797C123.63 130.686 125.72 133.804 127.38 137.15C129.593 141.574 130.699 146.267 130.699 151.229C130.699 153.792 130.105 156.559 128.917 159.53C128.332 161.031 127.738 162.297 127.136 163.325C127.006 164.108 126.941 164.9 126.941 165.7C129.105 167.365 130.528 168.638 131.211 169.52L132.334 170.891L133.164 171.87C133.912 172.311 134.4 172.784 134.628 173.29C134.84 173.796 134.929 174.4 134.896 175.102L136.434 177.918C137.003 179.191 137.231 180.407 137.117 181.566C137.052 182.186 136.906 182.692 136.678 183.084C136.385 183.737 136.076 184.08 135.751 184.113L135.214 183.721L134.896 183.305C134.083 182.456 133.514 181.95 133.188 181.787L131.626 181.199L129.747 180.538L127.941 180.636V181.762C127.909 182.643 127.787 183.378 127.575 183.966C127.331 184.668 127.022 185.272 126.648 185.778C126.274 186.3 125.973 186.528 125.745 186.463C125.631 186.447 125.379 186.129 124.988 185.508C124.679 185.019 124.338 184.594 123.963 184.235L121.962 182.913L119.985 181.811L118.936 181.444L117.423 181.468C117.163 182.513 116.634 183.721 115.837 185.092C115.414 185.908 115.105 186.308 114.909 186.292C114.795 186.275 114.592 186.071 114.299 185.68L113.909 185.116C113.372 184.235 112.941 183.623 112.615 183.28L111.151 181.982L109.443 180.489L108.32 180.097L107.539 179.509C107.263 179.265 107.067 178.971 106.954 178.628C106.872 178.383 106.815 178.04 106.783 177.6C106.653 174.825 107.612 171.756 109.662 168.393L109.516 166.483C107.238 165.357 105.074 163.529 103.024 160.999C101.3 158.877 100.21 156.151 99.7543 152.821L99.5591 148.438C99.6567 145.777 100.617 143.133 102.439 140.505C103.513 138.938 104.717 137.591 106.051 136.465L116.374 123.659L115.983 121.235L117.155 123.61L121.108 127.797Z" fill="#0D131A"/>
<path d="M124.158 85.1935L124.256 84.6548C124.37 83.5775 124.793 82.7205 125.525 82.0839L125.672 81.9615C126.127 81.5044 126.713 81.1616 127.429 80.9331C128.421 80.6066 129.3 80.6719 130.064 81.129C131.024 81.684 131.781 82.6226 132.334 83.9448C132.936 85.3975 132.936 86.581 132.334 87.4951L131.651 88.7928C131.374 89.3641 131.219 89.7477 131.187 89.9436C131.236 90.1394 131.447 90.4741 131.821 90.9474L132.7 91.9758L134.921 91.5596C135.832 91.4943 136.491 91.7718 136.898 92.3921C137.109 92.7185 137.288 93.755 137.434 95.5016C137.581 97.2645 137.556 98.3419 137.361 98.7336C137.231 98.9948 137.011 99.2397 136.702 99.4682L135.555 100.227L134.555 100.619C134.115 100.766 133.855 100.896 133.774 101.011C133.237 101.598 132.448 102.765 131.407 104.512C131.146 104.953 130.691 105.296 130.04 105.54L128.527 105.883C127.29 110.878 126.184 114.437 125.208 116.559C124.443 118.24 123.548 119.415 122.523 120.084C121.612 120.672 120.49 120.982 119.156 121.015C117.968 121.048 117.032 120.876 116.349 120.501C116.138 120.386 115.153 119.399 113.396 117.538L110.297 114.331L108.613 113.106L106.856 111.955C106.189 111.498 105.392 111.058 104.464 110.633L103.268 110.144L102.341 110.07L101.292 110.266L100.73 110.437L101.804 109.678C100.828 109.548 100.332 109.401 100.316 109.238C100.299 109.14 100.421 109.074 100.682 109.042H101.096L93.824 97.7787C93.2708 98.0399 92.9535 98.0399 92.8722 97.7787C92.8234 97.6155 92.8315 97.4767 92.8966 97.3625L93.2139 97.0197C93.3928 96.8728 94.1168 96.4484 95.3858 95.7465C96.541 95.1262 97.8669 94.661 99.3637 94.3508C100.991 94.0244 102.235 94.0162 103.098 94.3264C104.659 94.8977 105.758 95.7057 106.392 96.7504C106.994 97.7787 107.303 99.3131 107.32 101.354L108.564 102.039C109.101 102.349 109.516 102.659 109.809 102.97L110.224 103.435L112.347 105.834C113.356 106.961 114.112 107.703 114.616 108.062C115.3 108.552 116.113 108.813 117.057 108.846L118.96 108.699L119.375 105.932C119.522 104.414 119.538 103.394 119.424 102.872L118.009 101.672C117.276 101.411 116.788 101.174 116.544 100.962C116.056 100.472 115.837 99.6804 115.885 98.5867L115.91 97.4115L115.495 97.0442C114.356 96.0974 113.591 95.3302 113.201 94.7426C112.599 93.8611 112.428 92.8409 112.688 91.682C112.933 90.621 113.356 89.9599 113.957 89.6987C114.429 89.5028 114.657 89.4212 114.641 89.4539L117.032 88.2541C117.439 88.1072 117.83 88.1398 118.204 88.352L118.96 89.0376C119.416 89.4947 119.684 89.7314 119.766 89.7477L121.45 89.968L122.987 87.4706C123.67 86.279 124.061 85.52 124.158 85.1935Z" fill="#0D131A"/>
<path d="M125.5 85.4628L125.696 84.0917C125.793 83.5367 125.948 83.1694 126.159 82.9899L127.428 82.0349C128.193 81.7411 129.096 81.8799 130.137 82.4512L131.016 84.0917C131.52 85.2996 131.585 86.1892 131.211 86.7605C130.967 87.1196 130.707 87.7154 130.43 88.5479C130.137 89.3967 130.015 89.9517 130.064 90.2129C130.162 90.8169 130.593 91.4698 131.357 92.1717L132.48 93.0287L133.822 92.6369C134.782 92.4737 135.433 92.6451 135.775 93.1511C136.133 93.6734 136.328 94.5957 136.36 95.9179C136.393 97.0768 136.328 97.8114 136.165 98.1215L134.774 99.1254C133.847 99.6804 133.253 100.097 132.993 100.374L131.431 102.235C130.747 103.084 130.349 103.622 130.235 103.851C129.975 104.292 129.421 104.626 128.575 104.855L127.38 105.051L127.013 107.352C126.639 109.262 126.111 111.107 125.427 112.886C124.63 114.943 123.995 116.33 123.524 117.048C123.117 117.652 122.515 118.216 121.718 118.738C121.018 119.195 120.14 119.464 119.082 119.546C118.106 119.627 117.39 119.538 116.934 119.277C116.674 119.146 116.097 118.534 115.202 117.44C114.258 116.281 113.534 115.514 113.03 115.139L110.541 113.106C109.353 112.111 108.385 111.36 107.636 110.854C106.644 110.168 104.789 109.605 102.072 109.164L100.925 109.017H100.486L93.5796 97.9257L96.9718 96.4076C99.4448 95.4772 101.194 95.1915 102.219 95.5506C103.423 95.9913 104.301 96.4729 104.854 96.9952C105.359 97.4523 105.733 98.0807 105.977 98.8806C106.27 99.8763 106.367 100.954 106.27 102.113L107.295 102.7C108.059 103.174 108.645 103.631 109.052 104.071L111.199 106.397C112.273 107.491 113.136 108.275 113.786 108.748C115.202 109.76 116.804 110.193 118.594 110.046C118.464 110.503 118.114 110.911 117.545 111.27L116.324 112.127L115.324 112.715C115.063 112.927 114.925 113.229 114.909 113.62C114.893 114.061 115.072 114.739 115.446 115.653C115.82 116.551 116.072 116.975 116.202 116.926L115.934 116.069C115.641 115.318 115.519 114.551 115.568 113.767C115.568 113.604 115.674 113.441 115.885 113.278C116.015 113.196 116.333 113.008 116.837 112.715L117.911 112.102C118.513 111.711 119.058 111.123 119.546 110.34L119.741 109.899L120.083 108.626L120.693 105.81C120.839 104.928 120.864 104.08 120.766 103.263L120.546 102.308C119.489 101.28 118.789 100.692 118.448 100.546L117.642 100.129C117.366 99.8355 117.227 99.3213 117.227 98.5868L117.252 97.3135L117.154 96.7749L115.787 95.7465C114.86 95.1099 114.25 94.5875 113.957 94.1795C113.241 93.1837 113.087 92.286 113.493 91.4861L114.299 90.5802L117.471 89.5273L118.155 90.1394C118.61 90.6291 119.001 90.9311 119.326 91.0454L120.961 91.3147L122.181 91.1923C122.393 91.078 122.979 90.1966 123.939 88.5479C124.915 86.8993 125.435 85.8709 125.5 85.4628Z" fill="#F29600"/>
<path d="M120.522 93.9591C120.457 94.612 120.107 95.0364 119.473 95.2323C118.887 95.4118 118.415 95.3466 118.057 95.0364C117.374 94.4488 116.78 94.0489 116.276 93.8366L115.495 93.7142L114.909 93.6408C114.34 93.5428 113.941 93.0776 113.713 92.2451C113.567 91.6738 113.551 91.1025 113.665 90.5312C113.827 89.8456 114.169 89.2661 114.69 88.7927C115.308 88.2378 116.056 88.0011 116.935 88.0827C117.732 88.1643 118.269 88.401 118.545 88.7927L118.692 88.9397C119.717 89.968 120.294 90.8821 120.425 91.682C120.571 92.5961 120.604 93.3551 120.522 93.9591Z" fill="#0D131A"/>
<path d="M120.327 93.249L120.205 91.731C120.075 91.0127 119.522 90.1395 118.546 89.1111L118.375 88.9397C118.115 88.6132 117.626 88.4092 116.911 88.3276C116.13 88.2296 115.438 88.4418 114.836 88.9642C114.153 89.5845 113.811 90.3598 113.811 91.2902L113.933 92.1717C114.145 92.9226 114.478 93.3388 114.934 93.4204L115.52 93.4939L116.374 93.6163C116.878 93.8448 117.415 94.204 117.984 94.6937C118.326 94.9548 118.765 95.0446 119.302 94.963C119.888 94.8651 120.213 94.5631 120.278 94.057L120.327 93.249ZM120.644 91.6575C120.807 92.6369 120.75 93.5265 120.474 94.3264C120.164 95.1425 119.872 95.6241 119.595 95.771C119.318 95.9179 118.944 95.7792 118.472 95.3548C118.001 94.9303 117.236 94.4896 116.178 94.0326L114.861 93.8612C114.21 93.7632 113.754 93.2409 113.494 92.2941C113.331 91.6902 113.315 91.0862 113.445 90.4822C113.608 89.764 113.974 89.1519 114.543 88.6459C115.194 88.0419 115.999 87.7807 116.959 87.8624L118.033 88.1562L118.716 88.6459L118.863 88.7928C119.904 89.8375 120.498 90.7924 120.644 91.6575Z" fill="#0D131A"/>
<path d="M116.959 88.7193C117.48 88.8009 117.822 88.9397 117.984 89.1355L118.814 90.066C119.302 90.6699 119.587 91.2005 119.668 91.6575C119.847 92.7675 119.839 93.6653 119.644 94.3509L119.278 95.0609L119.107 94.8895C118.847 94.155 118.18 93.3959 117.106 92.6124L116.423 92.441C116.016 92.3757 115.674 92.2533 115.398 92.0737L114.348 90.9719C114.413 90.2537 114.698 89.6824 115.202 89.258C115.69 88.8172 116.276 88.6377 116.959 88.7193Z" fill="white"/>
<path d="M115.08 92.8083C114.885 92.7756 114.706 92.5798 114.543 92.2207C114.381 91.8289 114.315 91.4127 114.348 90.9719L115.397 92.0737C115.674 92.2533 116.016 92.3757 116.422 92.441L117.106 92.6124C118.179 93.3959 118.847 94.155 119.107 94.8895C118.147 93.9754 117.293 93.3551 116.544 93.0287L115.837 92.8818L115.08 92.8083Z" fill="#DBDCDC"/>
<path d="M129.381 81.1535C130.211 81.5289 130.748 82.1655 130.992 83.0633C131.154 83.6346 131.179 84.2549 131.065 84.9241C130.984 85.5118 130.845 85.928 130.65 86.1729C128.421 88.3276 126.957 89.4865 126.257 89.6497C125.932 89.6987 125.696 89.6334 125.55 89.4539C125.192 89.0131 124.94 88.0827 124.793 86.6626C124.63 85.1608 124.72 84.059 125.062 83.3571C126.054 81.0555 127.494 80.321 129.381 81.1535Z" fill="#0D131A"/>
<path d="M129.21 81.5207C128.25 81.0963 127.437 81.1371 126.77 81.6432C126.281 82.0023 125.834 82.6307 125.427 83.5285C125.118 84.1977 125.012 85.2669 125.11 86.736C125.191 88.1398 125.37 89.0131 125.647 89.3559L126.013 89.4049C126.387 89.3233 127.176 88.7683 128.38 87.7399L130.333 85.928L130.601 85.2424L130.723 84.1161L130.601 83.1612C130.406 82.394 129.942 81.8472 129.21 81.5207ZM124.842 83.1857C125.248 81.9778 125.875 81.1616 126.721 80.7372C127.551 80.3128 128.486 80.3291 129.527 80.7862C130.536 81.2269 131.162 82.0676 131.406 83.3081C131.634 84.4834 131.431 85.471 130.796 86.2708C130.178 87.1523 129.291 88.0337 128.136 88.9152C126.916 89.8619 126.078 90.2455 125.623 90.066C125.118 89.8701 124.76 89.005 124.549 87.4706C124.321 85.8546 124.419 84.4263 124.842 83.1857Z" fill="#0D131A"/>
<path d="M125.671 83.4061C126.062 82.5409 126.493 81.9451 126.965 81.6187L129.088 81.5452C129.544 81.7248 129.901 82.0512 130.162 82.5246C130.097 83.455 129.853 84.2549 129.43 84.9241C128.356 86.5401 127.168 87.9929 125.867 89.2825C125.606 89.3151 125.427 88.5234 125.33 86.9074C125.232 85.2588 125.346 84.0916 125.671 83.4061Z" fill="white"/>
<path d="M128.161 87.4951C126.973 88.6051 126.216 89.2009 125.891 89.2825H125.867C127.168 87.9929 128.356 86.5402 129.43 84.9242C129.853 84.2549 130.097 83.4551 130.162 82.5246C130.422 83.0306 130.512 83.6509 130.43 84.3855C130.365 84.9405 130.259 85.3322 130.113 85.5608L128.161 87.4951Z" fill="#DBDCDC"/>
<path d="M129.942 95.722L131.114 93.4938C131.553 92.9878 132.106 92.7267 132.773 92.7103C133.44 92.7103 134.042 92.9878 134.579 93.5428C135.165 94.1305 135.384 94.8895 135.238 95.8199C135.092 96.5545 134.587 97.1339 133.725 97.5583L131.846 98.2194C130.723 98.5622 129.958 98.7091 129.552 98.6602L129.039 98.6112C128.909 98.2358 129.21 97.2727 129.942 95.722Z" fill="#0D131A"/>
<path d="M129.991 96.1872C129.356 97.591 129.064 98.3582 129.112 98.4888L129.869 98.4398L131.577 98.146C132.147 97.9991 132.838 97.7216 133.652 97.3135C134.449 96.9054 134.904 96.3912 135.018 95.771L135.043 95.2813C135.043 94.6447 134.839 94.1223 134.432 93.7142C133.912 93.1756 133.367 92.9226 132.797 92.9552C132.179 92.9552 131.683 93.1756 131.309 93.6163L129.991 96.1872ZM128.649 98.9295C128.47 98.7663 128.665 97.9583 129.234 96.5055C129.82 95.0038 130.39 93.9428 130.943 93.3225C131.447 92.7838 132.057 92.5063 132.773 92.49C133.505 92.49 134.164 92.792 134.75 93.3959C135.401 94.0489 135.636 94.865 135.457 95.8444C135.376 96.3178 135.181 96.7585 134.872 97.1666L133.92 97.9746C133.497 98.2031 132.57 98.4561 131.138 98.7336L128.649 98.9295Z" fill="#0D131A"/>
<path d="M134.701 94.6447C134.262 95.3139 133.635 95.9587 132.822 96.579C131.813 97.3135 130.65 97.9012 129.332 98.3419C129.186 98.3256 129.503 97.5747 130.284 96.0893C131.032 94.6692 131.512 93.8367 131.724 93.5918C132 93.298 132.326 93.1266 132.7 93.0776C133.237 92.996 133.741 93.2001 134.213 93.6898C134.489 93.9673 134.652 94.2856 134.701 94.6447Z" fill="white"/>
<path d="M133.75 97.0442L131.602 97.8032C130.382 98.195 129.625 98.3745 129.333 98.3419C130.65 97.9012 131.814 97.3135 132.822 96.579C133.636 95.9587 134.262 95.3139 134.701 94.6447C134.767 95.1344 134.669 95.6485 134.409 96.1872C134.197 96.6279 133.977 96.9136 133.75 97.0442Z" fill="#DBDCDC"/>
<path d="M125.574 96.2607C125.118 96.6361 124.679 97.085 124.256 97.6073C123.394 98.6683 123.019 99.5825 123.133 100.35C123.198 100.872 123.377 101.386 123.67 101.892C122.808 101.68 122.092 101.182 121.523 100.399C120.953 99.5988 120.668 98.6928 120.668 97.6808C120.668 96.4892 121.043 95.469 121.791 94.6202C122.523 93.7714 123.418 93.347 124.476 93.347C125.126 93.347 125.736 93.5265 126.306 93.8856C126.859 94.2284 127.315 94.6936 127.672 95.2813C126.68 95.6077 125.98 95.9342 125.574 96.2607Z" fill="#D18200"/>
<path d="M125.574 96.2607C125.85 96.0485 126.33 95.8036 127.013 95.5261C127.681 95.2486 128.03 95.1425 128.063 95.2078L127.209 95.6975L125.915 96.4321C125.476 96.7748 124.996 97.3543 124.475 98.1705C123.873 99.1499 123.613 99.9416 123.695 100.546C123.841 101.607 124.451 102.61 125.525 103.557L127.038 104.708C126.957 104.92 126.355 104.569 125.232 103.655C124.012 102.659 123.312 101.558 123.133 100.35C123.019 99.5824 123.394 98.6683 124.256 97.6073C124.679 97.085 125.118 96.6361 125.574 96.2607Z" fill="#0D131A"/>
<path d="M114.738 121.578L115.153 122.582C115.495 123.349 115.845 123.969 116.203 124.443L119.351 127.626C121.384 129.927 123.28 132.849 125.037 136.391C126.989 140.309 128.21 143.925 128.698 147.238C129.056 149.768 128.999 152.339 128.527 154.951C128.218 156.747 127.73 158.575 127.063 160.436L126.086 163.129C125.973 163.7 125.907 164.329 125.891 165.014C125.859 165.716 125.899 166.116 126.013 166.214L127.624 167.512C128.779 168.491 129.568 169.267 129.991 169.838L132.334 172.801L132.895 173.094C133.302 173.323 133.538 173.527 133.603 173.706C133.831 174.261 133.798 174.98 133.505 175.861C133.147 176.89 132.529 177.64 131.651 178.114L129.625 179.191C129.527 178.212 129.348 177.795 129.088 177.942C128.226 178.465 127.396 178.579 126.599 178.285V180.097L123.158 180.44L121.425 180.513C120.742 178.946 120.181 178.35 119.741 178.726C119.318 179.101 118.765 179.216 118.082 179.069C117.48 178.938 117.016 178.677 116.691 178.285L116.618 180.489C114.291 180.407 112.404 180.162 110.956 179.754L110.272 177.82C109.784 177.559 109.361 177.143 109.003 176.571C108.645 175.984 108.41 175.339 108.296 174.637C108.637 172.743 109.418 170.842 110.638 168.932C110.736 168.752 110.769 168.034 110.736 166.777L111.712 166.973L113.933 167.071L115.08 166.9L113.957 166.704L111.908 166.361L110.712 166.018V165.994C110.337 165.912 109.801 165.635 109.101 165.161C107.686 164.198 106.164 162.713 104.537 160.705C102.862 158.632 101.78 156.257 101.292 153.58C101.031 152.16 100.942 150.291 101.023 147.973C101.121 145.247 101.975 142.447 103.586 139.574L105.977 136.073L114.738 121.578Z" fill="#F29600"/>
<path d="M129.088 177.942C129.349 177.795 129.528 178.212 129.625 179.191C128.828 179.583 127.819 179.885 126.599 180.097V178.285C127.396 178.579 128.226 178.465 129.088 177.942Z" fill="#D18200"/>
<path d="M119.741 178.726C120.181 178.35 120.742 178.946 121.425 180.513C119.766 180.562 118.163 180.554 116.618 180.489L116.691 178.285C117.016 178.677 117.48 178.938 118.082 179.069C118.765 179.216 119.318 179.101 119.741 178.726Z" fill="#D18200"/>
<path d="M108.295 174.637C108.409 175.339 108.645 175.984 109.003 176.571C109.361 177.143 109.784 177.559 110.272 177.82L110.955 179.754C109.084 179.265 108.124 178.538 108.076 177.575C108.027 176.645 108.1 175.665 108.295 174.637Z" fill="#D18200"/>
<path d="M129.649 177.6L129.552 177.649C129.942 176.669 130.438 175.91 131.04 175.371C131.691 174.8 132.163 174.441 132.456 174.294C132.781 174.115 133.033 174.139 133.212 174.368L134.286 176.057L135.531 178.359C136.035 179.501 136.239 180.57 136.141 181.566C136.092 182.072 135.994 182.456 135.848 182.717C135.75 182.031 135.262 181.297 134.384 180.513C133.668 179.877 133.066 179.469 132.578 179.289C131.976 179.093 131.415 178.873 130.894 178.628C130.113 178.236 129.698 177.893 129.649 177.6Z" fill="white"/>
<path d="M129.307 179.118C129.096 179.036 129.177 178.546 129.551 177.649L129.649 177.6C129.698 177.893 130.113 178.236 130.894 178.628C131.414 178.873 131.976 179.093 132.578 179.289C133.066 179.469 133.668 179.877 134.384 180.513C135.262 181.297 135.75 182.031 135.848 182.717C134.904 181.738 134.213 181.134 133.773 180.905L131.431 179.95L129.307 179.118Z" fill="#DBDCDC"/>
<path d="M124.085 174.882L125.672 177.085C126.615 178.554 127.087 179.722 127.087 180.587C127.087 182.137 126.916 183.37 126.575 184.284L126.062 185.165L125.842 184.847C125.891 183.884 125.379 182.913 124.305 181.933C123.557 181.232 122.824 180.734 122.109 180.44C120.986 179.95 120.352 179.33 120.205 178.579C120.596 177.469 121.035 176.645 121.523 176.106C122.044 175.551 122.589 175.159 123.158 174.931L124.085 174.882Z" fill="white"/>
<path d="M122.108 180.44C122.824 180.734 123.556 181.232 124.305 181.933C125.379 182.913 125.891 183.884 125.842 184.847L124.793 183.598C124.468 183.288 123.613 182.709 122.23 181.86C120.913 181.044 120.14 180.603 119.912 180.538C119.814 180.521 119.798 180.317 119.863 179.926C119.912 179.534 120.026 179.085 120.205 178.579C120.351 179.33 120.986 179.95 122.108 180.44Z" fill="#DBDCDC"/>
<path d="M111.517 175.812C111.875 175.371 112.249 175.02 112.64 174.759C113.095 174.482 113.404 174.441 113.567 174.637L115.129 176.522C116.008 177.632 116.496 178.359 116.593 178.701C116.854 179.583 116.658 180.856 116.008 182.521C115.682 183.354 115.324 184.096 114.934 184.749L114.787 184.504V184.382C114.738 183.566 114.446 182.782 113.909 182.031L112.542 180.44L111.395 179.265L110.419 178.163C110.809 177.004 111.175 176.22 111.517 175.812Z" fill="white"/>
<path d="M112.542 180.44L113.909 182.031C114.446 182.782 114.739 183.566 114.787 184.382V184.504C114.169 183.574 113.722 182.962 113.445 182.668L110.224 179.534C110.094 179.436 110.159 178.979 110.419 178.163L111.395 179.265L112.542 180.44Z" fill="#DBDCDC"/>
<path d="M129.845 177.33C129.487 178.097 129.332 178.636 129.381 178.946L129.479 179.093L130.064 179.314L133.725 180.783C134.132 181.011 134.791 181.591 135.702 182.521C135.848 182.293 135.946 181.909 135.995 181.37C136.092 180.44 135.897 179.444 135.409 178.383L134.237 176.179L133.188 174.563C133.107 174.449 133.009 174.392 132.895 174.392C132.619 174.359 132.025 174.735 131.114 175.518C130.658 175.926 130.235 176.53 129.845 177.33ZM129.747 180.17L129.137 179.926C128.795 179.811 128.584 179.542 128.502 179.118C128.421 178.612 128.6 177.893 129.039 176.963C129.479 176.033 129.975 175.322 130.528 174.833L131.846 173.804C132.269 173.56 132.651 173.453 132.993 173.486C133.351 173.535 133.66 173.715 133.92 174.025L134.994 175.714L136.214 178.016C136.784 179.256 137.003 180.44 136.873 181.566C136.808 182.137 136.678 182.603 136.483 182.962L136.19 183.5L135.848 183.721C135.702 183.753 135.58 183.704 135.482 183.574L135.067 183.158C134.156 182.244 133.562 181.721 133.286 181.591C132.895 181.362 131.716 180.889 129.747 180.17Z" fill="#0D131A"/>
<path d="M120.009 180.415L120.107 180.538C120.351 180.619 121.091 181.044 122.328 181.811C123.629 182.594 124.435 183.133 124.744 183.427L125.94 184.921C126.119 184.774 126.281 184.488 126.428 184.064C126.753 183.198 126.916 182.031 126.916 180.562C126.916 179.354 125.997 177.591 124.158 175.273L124.061 175.127L123.817 175.029C123.572 175.012 123.271 175.102 122.914 175.298C122.458 175.527 122.027 175.861 121.62 176.302C121.181 176.775 120.782 177.51 120.424 178.506C120.066 179.452 119.928 180.089 120.009 180.415ZM119.814 181.395C119.489 181.297 119.269 181.052 119.155 180.66C119.009 180.154 119.139 179.338 119.546 178.212C119.969 177.102 120.441 176.261 120.961 175.69C121.417 175.184 121.913 174.792 122.45 174.514C122.97 174.237 123.442 174.106 123.865 174.123C124.256 174.155 124.565 174.31 124.793 174.588L124.866 174.71C126.834 177.191 127.819 179.142 127.819 180.562C127.819 182.162 127.632 183.451 127.257 184.431C127.046 184.986 126.802 185.386 126.525 185.631L126.135 185.949L125.769 186.071L125.452 185.851L125.183 185.41C124.858 184.888 124.508 184.447 124.134 184.088C123.873 183.843 123.133 183.345 121.913 182.594C120.725 181.86 120.026 181.46 119.814 181.395Z" fill="#0D131A"/>
<path d="M113.787 175.151L113.567 174.882C113.486 174.8 113.396 174.759 113.298 174.759C113.071 174.759 112.794 174.89 112.469 175.151C112.143 175.396 111.859 175.682 111.615 176.008C111.354 176.318 111.053 176.922 110.712 177.82C110.354 178.767 110.24 179.346 110.37 179.558L111.81 180.905L113.445 182.521C113.787 182.897 114.258 183.558 114.86 184.504C115.381 183.623 115.804 182.701 116.129 181.738C116.552 180.448 116.658 179.452 116.447 178.75C116.316 178.293 115.43 177.094 113.787 175.151ZM110.907 175.445C111.118 175.151 111.411 174.849 111.785 174.539C112.339 174.082 112.843 173.853 113.298 173.853C113.673 173.853 113.99 174 114.25 174.294L114.47 174.563C116.194 176.588 117.138 177.893 117.301 178.481C117.594 179.46 117.439 180.783 116.837 182.448C116.495 183.345 116.097 184.186 115.641 184.97L115.275 185.606L114.885 185.851L114.519 185.631L114.104 184.994L112.786 183.133L109.784 180.219C109.312 179.811 109.337 178.922 109.857 177.551C110.248 176.555 110.598 175.853 110.907 175.445Z" fill="#0D131A"/>
<path d="M113.591 168.148L112.225 167.855C111.753 167.691 111.533 167.569 111.566 167.487L112.176 167.561L113.42 167.732L115.422 167.683C116.3 167.634 116.739 167.634 116.739 167.683L115.495 167.977L113.591 168.148Z" fill="#0D131A"/>
<path d="M91.0908 14.1138C92.2622 14.0321 93.2384 14.8646 94.0193 16.6112C94.2308 17.0683 94.483 18.0722 94.7758 19.6229L95.3859 23.0508C95.4998 23.72 96.0611 26.2011 97.0698 30.4942C97.4278 32.0612 98.5748 34.3791 100.511 37.4479L101.902 39.8964L102.317 41.2431C102.382 41.7654 102.113 42.9652 101.511 44.8423C101.821 45.8707 101.934 47.3398 101.853 49.2496L103.439 53.7793L104.293 55.983L105.294 57.9663C105.424 58.1785 105.66 58.2927 106.002 58.309C106.295 58.3417 106.579 58.6192 106.856 59.1415C107.393 60.1699 106.848 62.0879 105.221 64.8955L102.634 68.8131C102.846 70.2006 102.195 71.1147 100.682 71.5554L97.2407 71.9716C96.8665 72.0206 96.3214 72.241 95.6056 72.6327C94.9548 72.9755 94.2064 73.1469 93.3604 73.1469C92.3517 73.1469 91.1803 72.7715 89.8462 72.0206C88.691 71.4003 87.9833 70.878 87.723 70.4536L86.1855 68.5437L84.0623 65.9728L81.2071 62.8388L78.5958 60.0964C78.2541 59.7047 77.8393 59.4354 77.3512 59.2884L76.7411 59.1905C75.6347 58.2111 74.6911 56.9379 73.9102 55.3709C73.2919 54.114 72.9828 53.2243 72.9828 52.702C72.9828 52.3266 73.0723 51.5675 73.2513 50.4249C73.4465 49.2007 73.6499 48.2131 73.8614 47.4622C74.3495 45.732 74.5935 44.2955 74.5935 43.1529C74.5935 42.1572 74.1624 40.4269 73.3001 37.9621C72.9259 36.8521 71.7301 34.6321 69.7126 31.3022L67.5895 28.6823L65.1002 25.7686C64.5796 25.132 64.3437 24.3321 64.3925 23.3691C64.4413 22.5366 64.6365 21.9979 64.9782 21.7531C65.3199 21.5082 65.8974 21.3776 66.7109 21.3613C67.4756 21.3613 68.0776 21.4511 68.5168 21.6306C68.891 21.7775 69.6313 22.3897 70.7376 23.467L73.9834 26.7235C76.6679 29.4168 78.9781 31.4328 80.9142 32.7713C81.7277 33.3426 82.8747 33.465 84.3552 33.1385C85.5429 32.8937 86.7224 32.4285 87.8938 31.7429C88.7236 31.2532 89.2523 30.3228 89.4801 28.9516C89.5777 28.3313 89.6265 27.1561 89.6265 25.4258L89.3581 20.8226C89.1954 18.619 89.1222 17.3294 89.1384 16.954C89.171 16.2358 89.3174 15.64 89.5777 15.1666C89.9031 14.5137 90.4075 14.1627 91.0908 14.1138Z" fill="#F29600"/>
<path d="M96.4842 62.7408L97.6312 63.1815L98.6073 63.3039L99.4615 63.2795L99.9252 63.157L100.194 63.206C100.242 63.3366 100.112 63.459 99.8031 63.5733L98.6317 63.7692C97.8833 63.7692 97.1187 63.5733 96.3377 63.1815C96.1425 63.0836 95.809 63.0101 95.3372 62.9612L94.4098 62.9367C94.2146 62.9693 93.6695 63.4345 92.7747 64.3323C92.4493 64.6588 92.2053 64.7078 92.0426 64.4792C91.9287 64.3323 92.0833 64.0875 92.5063 63.7447L93.5312 62.9856C94.1007 62.6102 94.5888 62.4225 94.9955 62.4225C95.4185 62.4225 95.9147 62.5286 96.4842 62.7408Z" fill="#0D131A"/>
<path d="M96.533 66.6584L95.4592 66.3646L94.6051 66.6094C94.2471 66.6584 94.0031 66.5931 93.8729 66.4135C93.8079 66.3156 93.9299 66.1524 94.239 65.9238C94.5481 65.7116 94.8003 65.5974 94.9955 65.581C95.1745 65.5647 95.4836 65.6627 95.9229 65.8749L96.7282 66.3401C96.8421 66.438 96.8747 66.5278 96.8259 66.6094L96.533 66.6584Z" fill="#0D131A"/>
<path d="M105.221 62.2511C105.302 62.349 105.253 62.5123 105.074 62.7408L104.635 63.2305L103.805 64.5037C103.675 64.7322 103.529 64.8302 103.366 64.7975C103.187 64.7485 103.146 64.6343 103.244 64.4547C103.358 64.2262 103.651 63.7855 104.123 63.1325C104.236 62.9367 104.44 62.7326 104.733 62.5204C105.026 62.2919 105.188 62.2021 105.221 62.2511Z" fill="#0D131A"/>
<path d="M92.2622 47.4377L92.189 47.1684C92.189 47.0541 92.2296 46.9807 92.311 46.948L92.7259 47.1439L93.0431 48.0254L93.3604 48.4661L93.5312 48.8579L93.336 49.3231C93.1895 49.4537 93.0675 49.5026 92.9699 49.47C92.856 49.421 92.7991 49.119 92.7991 48.564L92.5794 48.0009L92.2622 47.4377Z" fill="#0D131A"/>
<path d="M92.9698 49.7393C93.1162 49.8046 93.0674 50.3106 92.8233 51.2574L91.7008 54.4649L91.0662 55.3219C90.7083 55.681 90.4805 55.8279 90.3829 55.7626C90.2202 55.6483 90.3097 55.33 90.6514 54.8077L90.9686 54.3914L91.2859 53.9018L91.896 52.4327L92.4817 50.8901C92.7257 50.0576 92.8884 49.674 92.9698 49.7393Z" fill="#0D131A"/>
<path d="M98.656 47.3643L98.778 47.756L98.8024 48.4416L98.656 49.6169C98.656 50.4004 98.5258 50.7677 98.2655 50.7187C98.1028 50.6861 98.0215 50.5636 98.0215 50.3514L98.0703 49.8128L98.3387 48.7109C98.4526 47.8295 98.5584 47.3806 98.656 47.3643Z" fill="#0D131A"/>
<path d="M87.5034 65.9728L87.5766 67.295C87.5604 67.5725 87.6824 67.7602 87.9427 67.8581C88.203 67.9561 88.4471 67.85 88.6748 67.5398L88.9677 67.9806C88.5935 68.4539 88.1867 68.6906 87.7475 68.6906C87.4546 68.6906 87.235 68.3397 87.0886 67.6378C86.9421 66.9522 86.8933 66.1116 86.9421 65.1158L87.5034 65.9728Z" fill="#0D131A"/>
<path d="M87.8448 67.9561C87.5519 67.8255 87.438 67.1644 87.5031 65.9728L88.6745 67.5399L88.1864 67.9316L87.8448 67.9561Z" fill="white"/>
<path d="M101.487 46.238L101.585 46.8746C101.682 47.6418 101.69 48.4579 101.609 49.3231C101.593 49.6658 101.422 50.1311 101.097 50.7187C100.69 51.4369 100.21 51.9266 99.6567 52.1878C99.6893 51.2084 99.852 50.2617 100.145 49.3475C100.486 48.3029 100.934 47.2663 101.487 46.238Z" fill="white"/>
<path d="M139.264 48.564C139.378 48.5151 139.549 48.5885 139.777 48.7844L140.216 49.2496C141.957 51.5675 143.617 55.3953 145.195 60.733C146.838 66.2503 147.977 72.0043 148.611 77.9949C148.676 78.5173 148.668 78.9825 148.587 79.3906C148.522 79.766 148.416 79.9619 148.27 79.9782C147.977 80.0108 147.773 79.3742 147.659 78.0684C147.123 72.649 146.049 67.1807 144.438 61.6635C142.941 56.5216 141.331 52.4979 139.606 49.5924C139.232 48.9721 139.118 48.6293 139.264 48.564Z" fill="#0D131A"/>
<path d="M146.244 52.9713C146.358 52.9223 146.602 53.1508 146.976 53.6569L147.586 54.5873C151.394 65.1321 152.825 75.1791 151.882 84.7282L151.784 85.9525C151.703 86.6381 151.605 86.9809 151.491 86.9809C151.394 86.9809 151.288 86.6789 151.174 86.0749L151.027 84.9486C151.418 72.4776 149.937 62.3817 146.586 54.6608C146.13 53.6324 146.016 53.0692 146.244 52.9713Z" fill="#0D131A"/>
<path d="M44.1365 54.7587L44.4537 54.269C44.6002 54.0568 44.7222 53.967 44.8198 53.9997C44.9337 54.0323 44.9906 54.1956 44.9906 54.4894L44.893 55.126C43.9494 57.7377 43.2335 61.3125 42.7454 65.8504C42.2085 70.6984 42.1028 75.1791 42.4282 79.2926V80.1985C42.3956 80.6556 42.3224 80.8841 42.2085 80.8841C42.0946 80.8841 41.9808 80.6556 41.8669 80.1985L41.7205 79.3171C41.2161 75.073 41.2324 70.3393 41.7693 65.1158C42.2899 59.9577 43.079 56.5053 44.1365 54.7587Z" fill="#0D131A"/>
<path d="M40.769 60.4637C40.9154 59.974 41.0699 59.7537 41.2326 59.8026C41.3465 59.8189 41.4197 59.9495 41.4523 60.1944V60.733C40.3297 65.124 39.4837 69.6211 38.9142 74.2242C38.3123 79.1212 38.0845 83.7244 38.2309 88.0337C38.2309 88.9805 38.1496 89.462 37.9869 89.4784C37.873 89.4784 37.7916 89.2743 37.7428 88.8662L37.694 88.0337C37.1246 83.806 37.1653 79.1702 37.816 74.1263C38.3692 69.719 39.3535 65.1648 40.769 60.4637Z" fill="#0D131A"/>
<path d="M81.4513 47.1194C81.6628 47.0215 81.8987 47.0541 82.159 47.2174L87.1619 50.9391L87.5036 51.2329C87.7964 51.4124 88.0079 51.6818 88.1381 52.0409L88.4797 52.751L88.9922 53.9507L88.8946 54.2935L87.8208 54.3425L84.7703 53.7548L84.5019 53.6814L81.915 52.9958C81.2479 52.751 80.8737 52.4653 80.7924 52.1388C80.7111 51.7634 80.7029 51.0697 80.768 50.0576L81.012 47.805C81.0771 47.4459 81.2235 47.2174 81.4513 47.1194Z" fill="white"/>
<path d="M81.4513 47.1194C81.6628 47.0215 81.8987 47.0541 82.159 47.2174L87.1619 50.9391L87.5036 51.2329C87.7964 51.4124 88.0079 51.6818 88.1381 52.0409L88.4797 52.751L88.9922 53.9507L88.8946 54.2935L87.8208 54.3425L84.7703 53.7548L84.5019 53.6814L81.915 52.9958C81.2479 52.751 80.8737 52.4653 80.7924 52.1388C80.7111 51.7634 80.7029 51.0697 80.768 50.0576L81.012 47.805C81.0771 47.4459 81.2235 47.2174 81.4513 47.1194Z" fill="white"/>
<path d="M84.0864 48.5885L84.1352 48.6375L87.503 51.2329C87.7958 51.4124 88.0073 51.6818 88.1375 52.0409L88.4791 52.7509L88.9916 53.9507L88.894 54.2935L87.8202 54.3425L84.9893 53.8038C84.2897 52.6938 83.9399 51.4451 83.9399 50.0576C83.9399 49.5516 83.9888 49.0619 84.0864 48.5885Z" fill="#008086"/>
<path d="M99.9983 52.2857L99.3882 52.6041L99.4126 52.1633C99.4289 51.1513 99.5915 50.1882 99.9007 49.2741L100.608 47.4377C100.836 48.0417 100.95 48.6701 100.95 49.3231C100.95 50.4494 100.633 51.4369 99.9983 52.2857Z" fill="#008086"/>
<path d="M99.9495 51.3553C99.8031 51.3553 99.6567 51.2574 99.5103 51.0615L99.9007 49.2741C100.08 48.7028 100.307 48.1151 100.584 47.5112C100.812 47.9682 100.926 48.5232 100.926 49.1761C100.926 49.7801 100.828 50.2943 100.633 50.7187C100.454 51.1431 100.226 51.3553 99.9495 51.3553Z" fill="#00666C"/>
<path d="M100.291 50.8169C100.177 51.2741 99.9415 51.47 99.5835 51.4047C99.616 51.0618 99.7462 50.5475 99.9741 49.8617C100.283 50.123 100.389 50.4414 100.291 50.8169Z" fill="#0D131A"/>
<path d="M84.0864 48.5885L84.1352 48.6375L87.503 51.2329C87.7958 51.4124 88.0073 51.6818 88.1375 52.0409L88.6744 53.1672L86.478 53.3141C85.5994 53.1509 84.8673 52.7836 84.2816 52.2123C84.0538 51.5267 83.9399 50.8085 83.9399 50.0576C83.9399 49.5516 83.9888 49.0619 84.0864 48.5885Z" fill="#00666C"/>
<path d="M85.1849 53.6324L84.5992 53.6079C83.981 52.5469 83.6719 51.3635 83.6719 50.0576C83.6719 49.6006 83.7288 49.0537 83.8427 48.4171L83.8671 48.3926C83.8834 48.6212 84.0298 48.7354 84.3064 48.7354L84.1844 50.0576C84.1844 51.3472 84.5179 52.5388 85.1849 53.6324Z" fill="#0D131A"/>
<path d="M86.5514 53.1672C86.2748 53.1672 86.047 53.0693 85.8681 52.8734C85.7054 52.6775 85.624 52.449 85.624 52.1878C85.624 51.9266 85.7054 51.6981 85.8681 51.5022C86.047 51.3227 86.2504 51.2329 86.4782 51.2329C86.6897 51.2329 86.8768 51.3308 87.0395 51.5267C87.2022 51.7226 87.2835 51.9511 87.2835 52.2123L87.1127 52.8489L86.5514 53.1672Z" fill="#0D131A"/>
<path d="M85.6 51.87C85.3559 51.87 85.1606 51.7802 85.0141 51.6006C84.8839 51.4373 84.8188 51.2495 84.8188 51.0373C84.8188 50.7923 84.8921 50.5882 85.0385 50.425C85.2013 50.2453 85.3884 50.1555 85.6 50.1555C85.7953 50.1555 85.9743 50.2535 86.137 50.4495C86.2835 50.6291 86.3567 50.8413 86.3567 51.0862L86.137 51.6251C85.9743 51.7883 85.7953 51.87 85.6 51.87Z" fill="white"/>
<path d="M100.144 50.2539L99.8515 50.0335L99.7539 49.5926C99.7539 49.3803 99.7946 49.2089 99.876 49.0783C99.9411 48.9313 100.031 48.8578 100.144 48.8578L100.413 49.1028L100.511 49.6171L100.413 50.0579L100.144 50.2539Z" fill="white"/>
<path d="M82.0121 47.4377C81.6054 47.1929 81.3532 47.3316 81.2556 47.8539L81.0116 50.0821C80.9465 51.0615 80.9546 51.7226 81.036 52.0654C81.1173 52.3918 81.6949 52.702 82.7687 52.9958L84.843 53.4855L87.8691 54.0976L88.5769 54.1711C88.707 54.1547 88.764 54.0894 88.7477 53.9752L87.918 52.1388C87.8203 51.894 87.6332 51.6573 87.3567 51.4288C86.2503 50.531 85.4369 49.8862 84.9162 49.4944L82.0121 47.4377ZM81.4996 46.5807C82.5897 47.201 83.7286 47.9519 84.9162 48.8333L87.3567 50.8656L87.9424 51.3798C88.2027 51.6083 88.3654 51.8123 88.4304 51.9919L89.6995 54.6608L89.8703 55.1015C89.9028 55.2647 89.8459 55.3708 89.6995 55.4198L89.5042 55.2729L89.3822 54.9546C89.3497 54.873 89.2277 54.7913 89.0161 54.7097L88.406 54.5873C87.9017 54.5873 86.9011 54.4241 85.4043 54.0976L81.5973 53.1672C81.2393 53.0203 80.9465 52.7591 80.7187 52.3837C80.4584 51.9756 80.3282 51.494 80.3282 50.9391C80.3282 50.482 80.377 49.8372 80.4747 49.0047L80.5967 47.707L80.6455 47.1929L80.5967 46.7521C80.1411 46.2624 79.9378 45.9768 79.9866 45.8952C80.0517 45.8135 80.556 46.0421 81.4996 46.5807Z" fill="#0D131A"/>
<path d="M101.048 49.2496C101.048 50.735 100.584 51.9266 99.6566 52.8244L99.2905 52.702C99.7135 52.3266 100.047 51.845 100.291 51.2574C100.551 50.6534 100.682 50.0086 100.682 49.3231C100.682 48.7191 100.584 48.156 100.389 47.6336L100.657 47.1684C100.917 47.854 101.048 48.5477 101.048 49.2496Z" fill="#0D131A"/>
<path d="M101.584 46.8746L101.487 46.238C100.934 47.2663 100.486 48.3029 100.145 49.3475C99.8518 50.2617 99.6891 51.2084 99.6566 52.1878C100.21 51.9266 100.69 51.4369 101.096 50.7187C101.422 50.1311 101.593 49.6659 101.609 49.3231C101.69 48.4579 101.682 47.6418 101.584 46.8746ZM93.9948 17.4437C93.3765 15.4522 92.4898 14.4565 91.3347 14.4565C90.57 14.4565 90.025 14.8973 89.6996 15.7787C89.4556 16.4643 89.3742 17.2396 89.4556 18.1048L89.7728 22.0713L89.9681 26.9928C89.9355 28.6904 89.6996 29.9392 89.2603 30.739C88.9349 31.3103 88.333 31.8653 87.4544 32.404C86.7548 32.8284 85.9169 33.1304 84.9408 33.3099L82.6956 33.4568L83.6474 33.8731L84.7943 34.4852L85.6973 35.1953L86.8687 36.1991C87.2429 36.6236 87.43 36.8929 87.43 37.0071C87.4137 37.1377 87.1453 37.0153 86.6247 36.6399L85.6241 35.9788L84.8432 35.3911C84.4202 34.9667 83.9809 34.6974 83.5253 34.5831C83.2162 34.5342 82.8095 34.3709 82.3051 34.0934C81.7031 33.7833 81.1581 33.4079 80.67 32.9671C78.5225 31.1879 76.5945 29.4821 74.8862 27.8498L69.2244 22.3896C68.7689 21.9652 68.0856 21.7122 67.1745 21.6306C66.2634 21.5327 65.6045 21.6633 65.1977 22.0224C64.8235 22.3488 64.6608 22.8957 64.7096 23.6629C64.7584 24.3484 64.9211 24.8789 65.1977 25.2544L67.4917 27.9722L70.0542 31.2287C73.2918 36.4195 74.9106 40.3126 74.9106 42.908C74.9106 44.0996 74.8049 45.2178 74.5934 46.2624L74.0321 48.3682L73.544 50.4983C73.3813 51.3798 73.2999 52.0164 73.2999 52.4082C73.2999 52.8815 73.4138 53.4447 73.6416 54.0976C73.8856 54.8485 74.2354 55.5504 74.691 56.2033C75.7322 57.7377 76.383 58.6192 76.6433 58.8477L77.107 58.9212C77.3836 58.9212 77.5951 58.9701 77.7415 59.0681L79.4742 60.4392C80.5317 61.386 81.4266 62.3082 82.1587 63.206L85.5021 67.0502C86.6897 68.4376 87.4137 69.3762 87.6741 69.8659C87.9181 70.274 88.577 70.829 89.6508 71.5309C91.0012 72.4123 92.2133 72.8531 93.287 72.8531C93.8402 72.8531 94.369 72.747 94.8733 72.5348L95.8007 72.0696C96.5979 71.7105 97.4195 71.5227 98.2655 71.5064C99.9413 71.4248 101.007 71.2208 101.462 70.8943C101.755 70.6821 101.999 70.2822 102.195 69.6945C101.593 70.2822 101.015 70.625 100.462 70.7229C99.7135 70.8861 98.7455 70.6821 97.5578 70.1108L96.3376 69.6945L94.8977 69.4986L93.1894 69.8414C92.3434 70.0047 91.6438 69.9965 91.0907 69.8169C90.4887 69.6211 90.0169 69.3436 89.6752 68.9845L88.8455 67.7847C88.211 66.8053 87.3243 65.6872 86.1854 64.4303C84.1192 62.194 82.7688 60.8228 82.1343 60.3168C81.874 60.1046 81.3371 59.8597 80.5236 59.5822L79.0105 58.9946C78.7502 58.8314 78.555 58.5376 78.4248 58.1132C78.3435 57.8357 78.254 57.3623 78.1564 56.693C78.0913 56.2197 78.0994 55.7952 78.1808 55.4198C78.2459 55.1097 78.3272 54.9546 78.4248 54.9546C78.5713 54.9872 78.6526 55.2158 78.6689 55.6402C78.8478 57.1093 79.0268 57.9989 79.2058 58.309C79.3197 58.5049 79.7264 58.709 80.426 58.9212C81.2557 59.1823 81.8333 59.4353 82.1587 59.6802L84.7211 61.8593C85.9576 63.0183 86.885 63.9814 87.5032 64.7486C88.3818 65.8586 89.2034 67.042 89.9681 68.2989L90.871 68.911C91.3428 69.1069 91.8716 69.2048 92.4573 69.2048L93.7019 69.0334L94.9953 68.862L96.4352 69.0334L97.8262 69.4007C99.0627 69.9394 99.7948 70.2087 100.023 70.2087C100.494 70.2087 101.113 69.8088 101.877 69.0089C102.805 68.0459 103.74 66.7074 104.684 64.9934C105.221 64.014 105.668 63.0591 106.026 62.1287C106.433 61.084 106.636 60.3005 106.636 59.7781C106.636 59.3537 106.465 59.0354 106.124 58.8232L105.025 58.0152C104.668 57.5908 104.253 56.8155 103.781 55.6891C103.358 54.7097 103.049 53.8528 102.854 53.1182C102.577 52.1062 102.235 51.0452 101.829 49.9352C101.503 50.8983 101.129 51.6328 100.706 52.1388L99.9982 52.7754C99.7216 52.9713 99.5833 53.1754 99.5833 53.3876L99.4613 53.6324L99.2417 53.5834C99.0953 53.2896 99.0221 52.9305 99.0221 52.5061L99.2417 50.9146C99.4044 50.0168 99.5589 49.4047 99.7054 49.0782L101.389 44.7199C101.812 43.4467 102.024 42.353 102.024 41.4389C102.024 40.8186 101.902 40.2473 101.658 39.725C101.462 39.3332 101.137 38.8517 100.682 38.2804C100.242 37.7417 99.7298 36.9582 99.1441 35.9298C98.477 34.7709 97.932 33.6609 97.509 32.5999C96.5979 30.2656 95.817 27.1724 95.1662 23.3201C94.5805 20.0228 94.19 18.064 93.9948 17.4437ZM94.5805 16.2929L95.8983 22.4876L97.2161 28.5354C97.6879 30.2493 98.4363 32.102 99.4613 34.0934L101.243 37.3744C101.975 38.7293 102.398 39.6842 102.512 40.2392C102.642 40.8594 102.691 41.4063 102.658 41.8796L102.365 43.1773L101.902 44.8423L102.073 46.0176C102.186 47.0133 102.211 48.0498 102.146 49.1272L104.001 54.3914L104.879 56.4237C105.237 57.0929 105.53 57.5255 105.758 57.7214L106.758 58.4315C107.214 58.7906 107.442 59.215 107.442 59.7047C107.442 60.7004 107.002 62.1205 106.124 63.965C105.261 65.8096 104.277 67.3848 103.171 68.6906C103.106 69.5395 102.732 70.3801 102.048 71.2126C101.69 71.6207 100.991 71.9145 99.9494 72.094L97.2405 72.4123C96.7687 72.4776 96.0935 72.7225 95.215 73.1469C94.4666 73.5223 93.767 73.7101 93.1162 73.7101C92.3027 73.7101 91.3184 73.4326 90.1633 72.8776C89.2034 72.4042 88.4875 71.9471 88.0157 71.5064L86.405 69.6456L84.0134 66.6829L78.8153 60.8799C78.3598 60.4066 77.8473 60.1128 77.2778 59.9985L76.4237 59.8271L75.1059 58.309L73.788 56.5951L72.763 54.7097C72.3563 53.8773 72.1529 53.2733 72.1529 52.8979C72.1529 52.3755 72.4539 50.8901 73.0559 48.4416C73.5928 46.14 73.8612 44.2873 73.8612 42.8835C73.8612 41.9368 73.4708 40.4514 72.6898 38.4273C72.0065 36.6317 71.25 34.9994 70.4202 33.5303C69.802 32.4366 68.6875 31.0002 67.0768 29.2209L64.2215 26.0869C63.587 25.287 63.3104 24.3484 63.3918 23.2711C63.4569 22.2917 63.7741 21.5735 64.3436 21.1164C64.8642 20.6757 65.6533 20.439 66.7108 20.4064C67.9473 20.3574 68.956 20.7083 69.7369 21.4592L74.1297 25.842L78.2296 29.931C79.8566 31.3838 81.0036 32.2571 81.6706 32.5509C82.0936 32.7468 82.8013 32.8284 83.7938 32.7957C84.8188 32.7468 85.6241 32.5917 86.2098 32.3305C87.0558 31.9714 87.6822 31.5797 88.0889 31.1552C88.7234 30.4697 89.0407 29.5556 89.0407 28.4129L89.0651 25.083L88.9675 22.1693L88.577 16.9785C88.5445 16.2276 88.756 15.4767 89.2115 14.7259C89.7159 13.8934 90.3585 13.42 91.1395 13.3057C91.9204 13.2078 92.6525 13.4771 93.3358 14.1137C93.9704 14.7177 94.3852 15.4441 94.5805 16.2929Z" fill="#0D131A"/>
</svg>
